<svg width="40" height="40" viewBox="0 0 40 40" fill="none" xmlns="http://www.w3.org/2000/svg">
    <rect width="40" height="40" rx="10" fill="url(#paint0_linear_51_2962)"/>
    <path d="M25.1171 28.0167C24.3838 28.2333 23.5171 28.3333 22.5005 28.3333H17.5005C16.4838 28.3333 15.6171 28.2333 14.8838 28.0167C15.0671 25.85 17.2921 24.1416 20.0005 24.1416C22.7088 24.1416 24.9338 25.85 25.1171 28.0167Z" stroke="#292D32" stroke-width="1.5" stroke-linecap="round" stroke-linejoin="round"/>
    <path d="M22.5003 11.6667H17.5003C13.3337 11.6667 11.667 13.3333 11.667 17.5V22.5C11.667 25.65 12.617 27.375 14.8837 28.0167C15.067 25.85 17.292 24.1416 20.0003 24.1416C22.7087 24.1416 24.9337 25.85 25.117 28.0167C27.3837 27.375 28.3337 25.65 28.3337 22.5V17.5C28.3337 13.3333 26.667 11.6667 22.5003 11.6667ZM20.0003 21.8083C18.3503 21.8083 17.017 20.4667 17.017 18.8167C17.017 17.1667 18.3503 15.8333 20.0003 15.8333C21.6503 15.8333 22.9837 17.1667 22.9837 18.8167C22.9837 20.4667 21.6503 21.8083 20.0003 21.8083Z" stroke="#292D32" stroke-width="1.5" stroke-linecap="round" stroke-linejoin="round"/>
    <path d="M22.9833 18.8167C22.9833 20.4667 21.6499 21.8083 19.9999 21.8083C18.3499 21.8083 17.0166 20.4667 17.0166 18.8167C17.0166 17.1667 18.3499 15.8333 19.9999 15.8333C21.6499 15.8333 22.9833 17.1667 22.9833 18.8167Z" stroke="#292D32" stroke-width="1.5" stroke-linecap="round" stroke-linejoin="round"/>
    <defs>
        <linearGradient id="paint0_linear_51_2962" x1="20" y1="0" x2="20" y2="40" gradientUnits="userSpaceOnUse">
            <stop stop-color="#ADFED4"/>
            <stop offset="1" stop-color="#CEF5AA"/>
        </linearGradient>
    </defs>
</svg>
