<svg width="758" height="770" viewBox="0 0 758 770" fill="none" xmlns="http://www.w3.org/2000/svg">
    <g opacity="0.1" clip-path="url(#clip0_3_763)">
        <g opacity="0.1">
            <path d="M849.109 144.75H699.373L604.24 257.335L586.628 278.157L477.787 407.088L459.737 428.479C491.858 452.636 535.393 460.314 575.685 445.098C593.033 438.527 607.872 428.512 619.847 416.104C620.515 415.402 621.184 414.7 621.844 413.999L628.149 406.626L753.035 258.904L806.242 195.837H805.945L849.109 144.75Z" stroke="url(#paint0_linear_3_763)" stroke-miterlimit="10"/>
            <path d="M621.836 414.007L532.628 519.715L481.484 580.206C468.972 595.009 446.161 595.009 433.649 580.206L382.505 519.715L162.247 258.912H312.37L441.267 411.39C446.805 417.697 453.11 423.394 459.721 428.471C491.866 452.628 535.393 460.322 575.693 445.09C593.998 438.164 609.53 427.398 621.836 414.007Z" stroke="#0044FF" stroke-miterlimit="10"/>
            <path d="M743.808 769.587H593.693L480.643 635.875L555.696 546.942L743.808 769.587Z" stroke="#0044FF" stroke-miterlimit="10"/>
            <path d="M435.877 634.183L321.597 769.587H171.474L360.972 545.407L435.877 634.183Z" stroke="#0044FF" stroke-miterlimit="10"/>
        </g>
        <g opacity="0.13">
            <path d="M843.612 139.805H693.876L598.743 252.39L581.131 273.211L472.29 402.143L454.24 423.534C486.361 447.691 529.896 455.369 570.188 440.153C587.536 433.581 602.416 423.608 614.35 411.159C615.018 410.457 615.687 409.755 616.347 409.053L622.652 401.681L747.538 253.959L800.745 190.892H800.448L843.612 139.805Z" stroke="url(#paint1_linear_3_763)" stroke-width="1.07" stroke-miterlimit="10"/>
            <path d="M616.339 409.054L527.132 514.762L475.987 575.253C463.476 590.055 440.664 590.055 428.153 575.253L377.008 514.762L156.742 253.959H306.866L435.762 406.437C441.3 412.744 447.58 418.474 454.216 423.518C486.238 447.84 529.888 455.369 570.188 440.137C588.493 433.21 604.026 422.445 616.331 409.054H616.339Z" stroke="#0044FF" stroke-width="1.07" stroke-miterlimit="10"/>
            <path d="M738.312 764.634H588.188L475.138 630.93L550.199 541.998L738.312 764.634Z" stroke="#0044FF" stroke-width="1.07" stroke-miterlimit="10"/>
            <path d="M430.372 629.238L316.092 764.634H165.969L355.467 540.454L430.372 629.238Z" stroke="#0044FF" stroke-width="1.07" stroke-miterlimit="10"/>
        </g>
        <g opacity="0.16">
            <path d="M838.107 134.859H688.371L593.238 247.445L575.626 268.266L466.785 397.198L448.735 418.589C480.856 442.745 524.391 450.423 564.683 435.208C582.031 428.636 596.911 418.663 608.845 406.213C609.513 405.511 610.182 404.81 610.842 404.108L617.147 396.735L742.033 249.013L795.24 185.947H794.943L838.107 134.859Z" stroke="url(#paint2_linear_3_763)" stroke-width="1.14" stroke-miterlimit="10"/>
            <path d="M610.834 404.108L521.627 509.817L470.483 570.307C457.971 585.11 435.159 585.11 422.648 570.307L371.503 509.817L151.237 249.014H301.361L430.257 401.491C435.795 407.799 442.075 413.528 448.711 418.573C480.733 442.894 524.383 450.424 564.683 435.192C582.988 428.265 598.521 417.499 610.826 404.108H610.834Z" stroke="#0044FF" stroke-width="1.14" stroke-miterlimit="10"/>
            <path d="M732.807 759.688H582.683L469.633 625.984L544.694 537.044L732.807 759.688Z" stroke="#0044FF" stroke-width="1.14" stroke-miterlimit="10"/>
            <path d="M424.876 624.292L310.588 759.689H160.473L349.963 535.509L424.876 624.292Z" stroke="#0044FF" stroke-width="1.14" stroke-miterlimit="10"/>
        </g>
        <g opacity="0.19">
            <path d="M832.603 129.906H682.867L587.734 242.492L570.122 263.313L461.281 392.245L443.231 413.636C475.352 437.792 518.887 445.47 559.179 430.255C576.527 423.683 591.407 413.71 603.341 401.26C604.009 400.558 604.678 399.857 605.338 399.155L611.644 391.782L736.529 244.06L789.736 180.994H789.439L832.603 129.906Z" stroke="url(#paint3_linear_3_763)" stroke-width="1.21" stroke-miterlimit="10"/>
            <path d="M605.33 399.164L516.122 504.872L464.978 565.362C452.467 580.165 429.655 580.165 417.143 565.362L365.999 504.872L145.741 244.061H295.865L424.761 396.538C430.299 402.846 436.579 408.575 443.215 413.62C475.237 437.941 518.887 445.471 559.187 430.239C577.492 423.312 593.024 412.546 605.33 399.155V399.164Z" stroke="#0044FF" stroke-width="1.21" stroke-miterlimit="10"/>
            <path d="M727.302 754.743H577.178L464.128 621.031L539.19 532.099L727.302 754.743Z" stroke="#0044FF" stroke-width="1.21" stroke-miterlimit="10"/>
            <path d="M419.371 619.339L305.091 754.743H154.968L344.466 530.563L419.371 619.339Z" stroke="#0044FF" stroke-width="1.21" stroke-miterlimit="10"/>
        </g>
        <g opacity="0.22">
            <path d="M827.098 124.961H677.363L582.23 237.546L564.617 258.368L455.776 387.299L437.727 408.69C469.848 432.847 513.382 440.525 553.674 425.309C571.022 418.738 585.902 408.765 597.836 396.315C598.505 395.613 599.173 394.911 599.833 394.21L606.139 386.837L731.024 239.115L784.232 176.048H783.935L827.098 124.961Z" stroke="url(#paint4_linear_3_763)" stroke-width="1.28" stroke-miterlimit="10"/>
            <path d="M599.825 394.21L510.618 499.918L459.473 560.409C446.962 575.212 424.15 575.212 411.638 560.409L360.494 499.918L140.236 239.115H290.36L419.256 391.593C424.794 397.9 431.074 403.63 437.71 408.674C469.732 432.996 513.382 440.525 553.682 425.293C571.987 418.367 587.52 407.601 599.825 394.21Z" stroke="#0044FF" stroke-width="1.28" stroke-miterlimit="10"/>
            <path d="M721.797 749.79H571.682L458.632 616.086L533.685 527.154L721.797 749.79Z" stroke="#0044FF" stroke-width="1.28" stroke-miterlimit="10"/>
            <path d="M413.866 614.394L299.586 749.79H149.463L338.962 525.61L413.866 614.394Z" stroke="#0044FF" stroke-width="1.28" stroke-miterlimit="10"/>
        </g>
        <g opacity="0.26">
            <path d="M821.601 120.007H671.866L576.732 232.592L559.12 253.413L450.279 382.345L432.229 403.736C464.35 427.893 507.885 435.571 548.177 420.355C565.525 413.784 580.405 403.811 592.339 391.361C593.007 390.659 593.676 389.957 594.336 389.255L600.642 381.883L725.527 234.161L778.735 171.094H778.437L821.601 120.007Z" stroke="url(#paint5_linear_3_763)" stroke-width="1.34" stroke-miterlimit="10"/>
            <path d="M594.328 389.264L505.121 494.972L453.977 555.463C441.465 570.265 418.654 570.265 406.142 555.463L354.998 494.972L134.731 234.169H284.855L413.751 386.647C419.289 392.954 425.57 398.684 432.205 403.728C464.227 428.05 507.877 435.579 548.177 420.347C566.483 413.42 582.015 402.655 594.32 389.264H594.328Z" stroke="#0044FF" stroke-width="1.34" stroke-miterlimit="10"/>
            <path d="M716.301 744.843H566.178L453.127 611.131L528.189 522.199L716.301 744.843Z" stroke="#0044FF" stroke-width="1.34" stroke-miterlimit="10"/>
            <path d="M408.362 609.439L294.081 744.844H143.958L333.457 520.664L408.362 609.439Z" stroke="#0044FF" stroke-width="1.34" stroke-miterlimit="10"/>
        </g>
        <g opacity="0.29">
            <path d="M816.096 115.062H666.361L571.228 227.648L553.616 248.469L444.774 377.401L426.725 398.792C458.846 422.949 502.38 430.627 542.672 415.411C560.02 408.839 574.9 398.866 586.834 386.416C587.503 385.715 588.171 385.013 588.831 384.311L595.137 376.939L720.022 229.216L773.23 166.15H772.933L816.096 115.062Z" stroke="url(#paint6_linear_3_763)" stroke-width="1.41" stroke-miterlimit="10"/>
            <path d="M588.823 384.312L499.616 490.02L448.472 550.51C435.96 565.313 413.149 565.313 400.637 550.51L349.493 490.02L129.227 229.217H279.35L408.246 381.694C413.784 388.002 420.065 393.731 426.7 398.776C458.722 423.098 502.373 430.627 542.672 415.395C560.978 408.468 576.51 397.703 588.815 384.312H588.823Z" stroke="#0044FF" stroke-width="1.41" stroke-miterlimit="10"/>
            <path d="M710.796 739.892H560.673L447.622 606.188L522.684 517.256L710.796 739.892Z" stroke="#0044FF" stroke-width="1.41" stroke-miterlimit="10"/>
            <path d="M402.865 604.496L288.577 739.892H138.462L327.952 515.712L402.865 604.496Z" stroke="#0044FF" stroke-width="1.41" stroke-miterlimit="10"/>
        </g>
        <g opacity="0.32">
            <path d="M810.592 110.108H660.857L565.724 222.694L548.112 243.515L439.27 372.447L421.221 393.838C453.342 417.994 496.877 425.672 537.168 410.457C554.516 403.885 569.396 393.912 581.33 381.462C581.999 380.76 582.667 380.059 583.327 379.357L589.633 371.985L714.518 224.262L767.726 161.196H767.429L810.592 110.108Z" stroke="url(#paint7_linear_3_763)" stroke-width="1.48" stroke-miterlimit="10"/>
            <path d="M583.319 379.365L494.112 485.073L442.967 545.564C430.456 560.367 407.644 560.367 395.133 545.564L343.988 485.073L123.73 224.271H273.854L402.75 376.748C408.288 383.056 414.569 388.785 421.204 393.83C453.226 418.151 496.876 425.681 537.176 410.449C555.482 403.522 571.014 392.756 583.319 379.365Z" stroke="#0044FF" stroke-width="1.48" stroke-miterlimit="10"/>
            <path d="M705.291 734.945H555.168L442.117 601.233L517.179 512.301L705.291 734.945Z" stroke="#0044FF" stroke-width="1.48" stroke-miterlimit="10"/>
            <path d="M397.361 599.541L283.08 734.945H132.957L322.456 510.766L397.361 599.541Z" stroke="#0044FF" stroke-width="1.48" stroke-miterlimit="10"/>
        </g>
        <g opacity="0.35">
            <path d="M805.087 105.163H655.352L560.219 217.748L542.607 238.57L433.765 367.502L415.716 388.892C447.837 413.049 491.372 420.727 531.663 405.512C549.011 398.94 563.891 388.967 575.825 376.517C576.494 375.815 577.162 375.113 577.823 374.412L584.128 367.039L709.013 219.317L762.221 156.25H761.924L805.087 105.163Z" stroke="url(#paint8_linear_3_763)" stroke-width="1.55" stroke-miterlimit="10"/>
            <path d="M577.814 374.412L488.607 480.12L437.463 540.611C424.951 555.414 402.139 555.414 389.628 540.611L338.483 480.12L118.226 219.317H268.349L397.245 371.795C402.783 378.102 409.064 383.832 415.699 388.876C447.721 413.198 491.372 420.728 531.671 405.495C549.977 398.569 565.509 387.803 577.814 374.412Z" stroke="#0044FF" stroke-width="1.55" stroke-miterlimit="10"/>
            <path d="M699.786 730H549.671L436.612 596.288L511.674 507.355L699.786 730Z" stroke="#0044FF" stroke-width="1.55" stroke-miterlimit="10"/>
            <path d="M391.856 594.596L277.575 729.992H127.452L316.951 505.812L391.856 594.596Z" stroke="#0044FF" stroke-width="1.55" stroke-miterlimit="10"/>
        </g>
        <g opacity="0.38">
            <path d="M799.59 100.218H649.855L554.722 212.803L537.11 233.624L428.268 362.556L410.219 383.947C442.34 408.104 485.875 415.782 526.166 400.566C543.514 393.995 558.394 384.021 570.328 371.572C570.997 370.87 571.665 370.168 572.325 369.466L578.631 362.094L703.516 214.372L756.724 151.305H756.427L799.59 100.218Z" stroke="url(#paint9_linear_3_763)" stroke-width="1.62" stroke-miterlimit="10"/>
            <path d="M572.309 369.467L483.102 475.175L431.958 535.666C419.446 550.468 396.634 550.468 384.123 535.666L332.979 475.175L112.721 214.372H262.844L391.74 366.85C397.278 373.157 403.559 378.887 410.194 383.931C442.216 408.253 485.867 415.782 526.166 400.55C544.472 393.623 560.004 382.858 572.309 369.467Z" stroke="#0044FF" stroke-width="1.62" stroke-miterlimit="10"/>
            <path d="M694.29 725.047H544.167L431.116 591.343L506.178 502.402L694.29 725.047Z" stroke="#0044FF" stroke-width="1.62" stroke-miterlimit="10"/>
            <path d="M386.351 589.651L272.071 725.047H121.947L311.446 500.867L386.351 589.651Z" stroke="#0044FF" stroke-width="1.62" stroke-miterlimit="10"/>
        </g>
        <g opacity="0.41">
            <path d="M794.085 95.2646H644.35L549.217 207.85L531.605 228.671L422.763 357.603L404.714 378.994C436.835 403.151 480.37 410.829 520.661 395.613C538.009 389.041 552.889 379.068 564.823 366.619C565.492 365.917 566.16 365.215 566.821 364.513L573.126 357.141L698.011 209.419L751.219 146.352H750.922L794.085 95.2646Z" stroke="url(#paint10_linear_3_763)" stroke-width="1.69" stroke-miterlimit="10"/>
            <path d="M566.813 364.522L477.605 470.23L426.461 530.721C413.949 545.524 391.138 545.524 378.626 530.721L327.482 470.23L107.216 209.419H257.339L386.236 361.897C391.773 368.204 398.054 373.934 404.689 378.978C436.711 403.3 480.362 410.829 520.662 395.597C538.967 388.67 554.499 377.905 566.804 364.514L566.813 364.522Z" stroke="#0044FF" stroke-width="1.69" stroke-miterlimit="10"/>
            <path d="M688.785 720.101H538.662L425.611 586.389L500.673 497.457L688.785 720.101Z" stroke="#0044FF" stroke-width="1.69" stroke-miterlimit="10"/>
            <path d="M380.855 584.697L266.566 720.102H116.451L305.942 495.922L380.855 584.697Z" stroke="#0044FF" stroke-width="1.69" stroke-miterlimit="10"/>
        </g>
        <g opacity="0.44">
            <path d="M788.58 90.3193H638.845L543.712 202.905L526.1 223.726L417.258 352.658L399.209 374.049C431.33 398.205 474.865 405.883 515.156 390.668C532.504 384.096 547.385 374.123 559.319 361.673C559.987 360.971 560.656 360.27 561.316 359.568L567.621 352.195L692.507 204.473L745.714 141.407H745.417L788.58 90.3193Z" stroke="url(#paint11_linear_3_763)" stroke-width="1.76" stroke-miterlimit="10"/>
            <path d="M561.307 359.568L472.1 465.277L420.956 525.767C408.444 540.57 385.633 540.57 373.121 525.767L321.977 465.277L101.719 204.474H251.842L380.738 356.951C386.276 363.259 392.557 368.988 399.192 374.033C431.214 398.354 474.865 405.884 515.164 390.652C533.47 383.725 549.002 372.959 561.307 359.568Z" stroke="#0044FF" stroke-width="1.76" stroke-miterlimit="10"/>
            <path d="M683.279 715.148H533.156L420.105 581.444L495.167 492.512L683.279 715.148Z" stroke="#0044FF" stroke-width="1.76" stroke-miterlimit="10"/>
            <path d="M375.349 579.752L261.069 715.149H110.945L300.444 490.969L375.349 579.752Z" stroke="#0044FF" stroke-width="1.76" stroke-miterlimit="10"/>
        </g>
        <g opacity="0.47">
            <path d="M783.076 85.3652H633.34L538.207 197.951L520.595 218.772L411.754 347.704L393.704 369.095C425.825 393.251 469.36 400.929 509.651 385.714C526.999 379.142 541.88 369.169 553.814 356.719C554.482 356.017 555.151 355.316 555.811 354.614L562.116 347.241L687.002 199.519L740.209 136.453H739.912L783.076 85.3652Z" stroke="url(#paint12_linear_3_763)" stroke-width="1.83" stroke-miterlimit="10"/>
            <path d="M555.802 354.622L466.595 460.33L415.451 520.821C402.939 535.624 380.128 535.624 367.616 520.821L316.472 460.33L96.2139 199.527H246.337L375.234 352.005C380.771 358.312 387.052 364.042 393.687 369.086C425.709 393.408 469.36 400.937 509.66 385.705C527.965 378.779 543.497 368.013 555.802 354.622Z" stroke="#0044FF" stroke-width="1.83" stroke-miterlimit="10"/>
            <path d="M677.774 710.202H527.659L414.601 576.49L489.662 487.558L677.774 710.202Z" stroke="#0044FF" stroke-width="1.83" stroke-miterlimit="10"/>
            <path d="M369.844 574.798L255.564 710.202H105.44L294.939 486.022L369.844 574.798Z" stroke="#0044FF" stroke-width="1.83" stroke-miterlimit="10"/>
        </g>
        <g opacity="0.5">
            <path d="M777.579 80.4199H627.843L532.71 193.005L515.098 213.826L406.256 342.758L388.207 364.149C420.328 388.306 463.863 395.984 504.154 380.768C521.502 374.197 536.383 364.224 548.317 351.774C548.985 351.072 549.654 350.37 550.314 349.669L556.619 342.296L681.505 194.574L734.712 131.507H734.415L777.579 80.4199Z" stroke="url(#paint13_linear_3_763)" stroke-width="1.9" stroke-miterlimit="10"/>
            <path d="M550.298 349.669L461.09 455.377L409.946 515.868C397.434 530.671 374.623 530.671 362.111 515.868L310.967 455.377L90.709 194.574H240.832L369.729 347.052C375.267 353.359 381.547 359.089 388.183 364.133C420.204 388.455 463.855 395.984 504.155 380.752C522.46 373.826 537.992 363.06 550.298 349.669Z" stroke="#0044FF" stroke-width="1.9" stroke-miterlimit="10"/>
            <path d="M672.278 705.248H522.155L409.104 571.544L484.166 482.612L672.278 705.248Z" stroke="#0044FF" stroke-width="1.9" stroke-miterlimit="10"/>
            <path d="M364.339 569.853L250.059 705.249H99.9355L289.434 481.069L364.339 569.853Z" stroke="#0044FF" stroke-width="1.9" stroke-miterlimit="10"/>
        </g>
        <g opacity="0.53">
            <path d="M772.075 75.4668H622.339L527.206 188.052L509.594 208.873L400.753 337.805L382.703 359.196C414.824 383.353 458.359 391.031 498.65 375.815C515.998 369.244 530.879 359.271 542.813 346.821C543.481 346.119 544.15 345.417 544.81 344.715L551.115 337.343L676.001 189.621L729.208 126.554H728.911L772.075 75.4668Z" stroke="url(#paint14_linear_3_763)" stroke-width="1.97" stroke-miterlimit="10"/>
            <path d="M544.802 344.724L455.595 450.432L404.45 510.922C391.939 525.725 369.127 525.725 356.616 510.922L305.471 450.432L85.2051 189.629H235.328L364.225 342.107C369.763 348.414 376.043 354.144 382.679 359.188C414.701 383.51 458.351 391.039 498.651 375.807C516.956 368.88 532.488 358.115 544.794 344.724H544.802Z" stroke="#0044FF" stroke-width="1.97" stroke-miterlimit="10"/>
            <path d="M666.774 700.303H516.651L403.601 566.591L478.662 477.659L666.774 700.303Z" stroke="#0044FF" stroke-width="1.97" stroke-miterlimit="10"/>
            <path d="M358.844 564.899L244.555 700.304H94.4404L283.931 476.124L358.844 564.899Z" stroke="#0044FF" stroke-width="1.97" stroke-miterlimit="10"/>
        </g>
        <g opacity="0.57">
            <path d="M766.57 70.5215H616.834L521.701 183.107L504.089 203.928L395.248 332.86L377.198 354.251C409.319 378.408 452.854 386.086 493.146 370.87C510.494 364.298 525.374 354.325 537.308 341.875C537.976 341.174 538.645 340.472 539.305 339.77L545.61 332.398L670.496 184.675L723.703 121.609H723.406L766.57 70.5215Z" stroke="url(#paint15_linear_3_763)" stroke-width="2.03" stroke-miterlimit="10"/>
            <path d="M539.297 339.77L450.089 445.479L398.945 505.969C386.433 520.772 363.622 520.772 351.11 505.969L299.966 445.479L79.708 184.676H229.831L358.728 337.153C364.266 343.461 370.546 349.19 377.182 354.235C409.204 378.557 452.854 386.086 493.154 370.854C511.459 363.927 526.991 353.162 539.297 339.77Z" stroke="#0044FF" stroke-width="2.03" stroke-miterlimit="10"/>
            <path d="M661.269 695.359H511.145L398.095 561.647L473.156 472.715L661.269 695.359Z" stroke="#0044FF" stroke-width="2.03" stroke-miterlimit="10"/>
            <path d="M353.338 559.954L239.058 695.351H88.9346L278.433 471.171L353.338 559.954Z" stroke="#0044FF" stroke-width="2.03" stroke-miterlimit="10"/>
        </g>
        <g opacity="0.6">
            <path d="M761.065 65.5762H611.329L516.196 178.161L498.584 198.983L389.743 327.915L371.693 349.306C403.814 373.462 447.349 381.14 487.641 365.925C504.989 359.353 519.869 349.38 531.803 336.93C532.471 336.228 533.14 335.527 533.8 334.825L540.105 327.452L664.991 179.73L718.198 116.663H717.901L761.065 65.5762Z" stroke="url(#paint16_linear_3_763)" stroke-width="2.1" stroke-miterlimit="10"/>
            <path d="M533.792 334.825L444.584 440.533L393.44 501.024C380.928 515.827 358.117 515.827 345.605 501.024L294.461 440.533L74.2031 179.73H224.326L353.223 332.208C358.761 338.516 365.041 344.245 371.677 349.289C403.699 373.611 447.349 381.141 487.649 365.909C505.954 358.982 521.486 348.216 533.792 334.825Z" stroke="#0044FF" stroke-width="2.1" stroke-miterlimit="10"/>
            <path d="M655.764 690.405H505.649L392.59 556.701L467.652 467.761L655.764 690.405Z" stroke="#0044FF" stroke-width="2.1" stroke-miterlimit="10"/>
            <path d="M347.833 555.009L233.553 690.405H83.4297L272.928 466.226L347.833 555.009Z" stroke="#0044FF" stroke-width="2.1" stroke-miterlimit="10"/>
        </g>
        <g opacity="0.63">
            <path d="M755.56 60.623H605.825L510.691 173.208L493.079 194.03L384.238 322.962L366.188 344.352C398.309 368.509 441.844 376.187 482.136 360.972C499.484 354.4 514.364 344.427 526.298 331.977C526.967 331.275 527.635 330.573 528.295 329.872L534.601 322.499L659.486 174.777L712.694 111.71H712.396L755.56 60.623Z" stroke="url(#paint17_linear_3_763)" stroke-width="2.17" stroke-miterlimit="10"/>
            <path d="M528.287 329.88L439.079 435.588L387.935 496.079C375.424 510.882 352.612 510.882 340.1 496.079L288.956 435.588L68.6982 174.777H218.822L347.718 327.255C353.256 333.562 359.536 339.292 366.172 344.336C398.194 368.658 441.844 376.187 482.144 360.955C500.449 354.029 515.982 343.263 528.287 329.872V329.88Z" stroke="#0044FF" stroke-width="2.17" stroke-miterlimit="10"/>
            <path d="M650.268 685.461H500.144L387.094 551.749L462.155 462.816L650.268 685.461Z" stroke="#0044FF" stroke-width="2.17" stroke-miterlimit="10"/>
            <path d="M342.328 550.056L228.048 685.46H77.9248L267.423 461.28L342.328 550.056Z" stroke="#0044FF" stroke-width="2.17" stroke-miterlimit="10"/>
        </g>
        <g opacity="0.66">
            <path d="M750.063 55.6777H600.327L505.194 168.263L487.582 189.084L378.741 318.016L360.691 339.407C392.812 363.564 436.347 371.242 476.639 356.026C493.987 349.455 508.867 339.481 520.801 327.032C521.469 326.33 522.138 325.628 522.798 324.926L529.103 317.554L653.989 169.832L707.196 106.765H706.899L750.063 55.6777Z" stroke="url(#paint18_linear_3_763)" stroke-width="2.24" stroke-miterlimit="10"/>
            <path d="M522.79 324.927L433.583 430.635L382.439 491.126C369.927 505.928 347.115 505.928 334.604 491.126L283.46 430.635L63.1934 169.832H213.317L342.213 322.31C347.751 328.617 354.032 334.347 360.667 339.391C392.689 363.713 436.339 371.242 476.639 356.01C494.944 349.083 510.477 338.318 522.782 324.927H522.79Z" stroke="#0044FF" stroke-width="2.24" stroke-miterlimit="10"/>
            <path d="M644.763 680.506H494.639L381.589 546.802L456.651 457.87L644.763 680.506Z" stroke="#0044FF" stroke-width="2.24" stroke-miterlimit="10"/>
            <path d="M336.832 545.111L222.544 680.507H72.4287L261.919 456.327L336.832 545.111Z" stroke="#0044FF" stroke-width="2.24" stroke-miterlimit="10"/>
        </g>
        <g opacity="0.69">
            <path d="M744.559 50.7236H594.824L499.69 163.309L482.078 184.13L373.237 313.062L355.188 334.453C387.308 358.61 430.843 366.288 471.135 351.072C488.483 344.5 503.363 334.527 515.297 322.077C515.966 321.376 516.634 320.674 517.294 319.972L523.6 312.6L648.485 164.878L701.693 101.811H701.395L744.559 50.7236Z" stroke="url(#paint19_linear_3_763)" stroke-width="2.31" stroke-miterlimit="10"/>
            <path d="M517.286 319.98L428.078 425.689L376.934 486.179C364.423 500.982 341.611 500.982 329.099 486.179L277.955 425.689L57.6973 164.886H207.821L336.717 317.363C342.255 323.671 348.535 329.4 355.171 334.445C387.193 358.767 430.843 366.296 471.143 351.064C489.448 344.137 504.981 333.371 517.286 319.98Z" stroke="#0044FF" stroke-width="2.31" stroke-miterlimit="10"/>
            <path d="M639.258 675.56H489.134L376.084 541.848L451.146 452.916L639.258 675.56Z" stroke="#0044FF" stroke-width="2.31" stroke-miterlimit="10"/>
            <path d="M331.327 540.156L217.047 675.561H66.9238L256.423 451.381L331.327 540.156Z" stroke="#0044FF" stroke-width="2.31" stroke-miterlimit="10"/>
        </g>
        <g opacity="0.72">
            <path d="M739.054 45.7783H589.319L494.186 158.364L476.574 179.185L367.732 308.117L349.683 329.508C381.804 353.664 425.338 361.342 465.63 346.127C482.978 339.555 497.858 329.582 509.792 317.132C510.461 316.43 511.129 315.729 511.789 315.027L518.095 307.654L642.98 159.932L696.188 96.8656H695.891L739.054 45.7783Z" stroke="url(#paint20_linear_3_763)" stroke-width="2.38" stroke-miterlimit="10"/>
            <path d="M511.781 315.027L422.574 420.735L371.429 481.226C358.918 496.029 336.106 496.029 323.595 481.226L272.45 420.735L52.1924 159.933H202.316L331.212 312.41C336.75 318.718 343.031 324.447 349.666 329.492C381.688 353.813 425.338 361.343 465.638 346.111C483.943 339.184 499.476 328.418 511.781 315.027Z" stroke="#0044FF" stroke-width="2.38" stroke-miterlimit="10"/>
            <path d="M633.753 670.607H483.638L370.579 536.903L445.641 447.971L633.753 670.607Z" stroke="#0044FF" stroke-width="2.38" stroke-miterlimit="10"/>
            <path d="M325.822 535.211L211.542 670.608H61.4189L250.918 446.428L325.822 535.211Z" stroke="#0044FF" stroke-width="2.38" stroke-miterlimit="10"/>
        </g>
        <g opacity="0.75">
            <path d="M733.549 40.8252H583.814L488.681 153.41L471.069 174.232L362.227 303.164L344.178 324.555C376.299 348.711 419.834 356.389 460.125 341.174C477.473 334.602 492.353 324.629 504.287 312.179C504.956 311.477 505.624 310.776 506.285 310.074L512.59 302.701L637.475 154.979L690.683 91.9125H690.386L733.549 40.8252Z" stroke="url(#paint21_linear_3_763)" stroke-width="2.45" stroke-miterlimit="10"/>
            <path d="M506.276 310.082L417.069 415.79L365.924 476.281C353.413 491.084 330.601 491.084 318.09 476.281L266.945 415.79L46.6875 154.987H196.811L325.707 307.465C331.245 313.772 337.526 319.502 344.161 324.546C376.183 348.868 419.833 356.397 460.133 341.165C478.439 334.239 493.971 323.473 506.276 310.082Z" stroke="#0044FF" stroke-width="2.45" stroke-miterlimit="10"/>
            <path d="M628.257 665.662H478.134L365.083 531.95L440.145 443.018L628.257 665.662Z" stroke="#0044FF" stroke-width="2.45" stroke-miterlimit="10"/>
            <path d="M320.318 530.258L206.037 665.662H55.9141L245.413 441.482L320.318 530.258Z" stroke="#0044FF" stroke-width="2.45" stroke-miterlimit="10"/>
        </g>
        <g opacity="0.78">
            <path d="M728.052 35.8799H578.317L483.184 148.465L465.572 169.286L356.73 298.218L338.681 319.609C370.802 343.766 414.337 351.444 454.628 336.228C471.976 329.657 486.856 319.684 498.79 307.234C499.459 306.532 500.127 305.83 500.787 305.129L507.093 297.756L631.978 150.034L685.186 86.9672H684.889L728.052 35.8799Z" stroke="url(#paint22_linear_3_763)" stroke-width="2.52" stroke-miterlimit="10"/>
            <path d="M500.78 305.129L411.572 410.837L360.428 471.328C347.916 486.131 325.105 486.131 312.593 471.328L261.449 410.837L41.1826 150.034H191.306L320.202 302.512C325.74 308.819 332.021 314.549 338.656 319.593C370.678 343.915 414.329 351.444 454.628 336.212C472.934 329.286 488.466 318.52 500.771 305.129H500.78Z" stroke="#0044FF" stroke-width="2.52" stroke-miterlimit="10"/>
            <path d="M622.752 660.716H472.629L359.578 527.004L434.64 438.072L622.752 660.716Z" stroke="#0044FF" stroke-width="2.52" stroke-miterlimit="10"/>
            <path d="M314.821 525.313L200.533 660.717L50.418 660.709L239.908 436.529L314.821 525.313Z" stroke="#0044FF" stroke-width="2.52" stroke-miterlimit="10"/>
        </g>
        <g opacity="0.81">
            <path d="M722.548 30.9346H572.813L477.68 143.52L460.068 164.341L351.226 293.273L333.177 314.664C365.298 338.821 408.833 346.499 449.124 331.283C466.472 324.711 481.352 314.738 493.286 302.288C493.955 301.587 494.623 300.885 495.284 300.183L501.589 292.811L626.474 145.088L679.682 82.0219H679.385L722.548 30.9346Z" stroke="url(#paint23_linear_3_763)" stroke-width="2.59" stroke-miterlimit="10"/>
            <path d="M495.275 300.184L406.068 405.892L354.923 466.382C342.412 481.185 319.6 481.185 307.089 466.382L255.944 405.892L35.6865 145.089H185.81L314.706 297.566C320.244 303.874 326.525 309.604 333.16 314.648C365.182 338.97 408.833 346.499 449.132 331.267C467.438 324.34 482.97 313.575 495.275 300.184Z" stroke="#0044FF" stroke-width="2.59" stroke-miterlimit="10"/>
            <path d="M617.247 655.763H467.124L354.073 522.06L429.135 433.119L617.247 655.763Z" stroke="#0044FF" stroke-width="2.59" stroke-miterlimit="10"/>
            <path d="M309.317 520.368L195.028 655.764H44.9131L234.412 431.584L309.317 520.368Z" stroke="#0044FF" stroke-width="2.59" stroke-miterlimit="10"/>
        </g>
        <g opacity="0.84">
            <path d="M717.043 25.9814H567.308L472.175 138.567L454.563 159.388L345.721 288.32L327.672 309.711C359.793 333.868 403.328 341.545 443.619 326.33C460.967 319.758 475.847 309.785 487.781 297.335C488.45 296.634 489.118 295.932 489.779 295.23L496.084 287.858L620.969 140.135L674.177 77.0688H673.88L717.043 25.9814Z" stroke="url(#paint24_linear_3_763)" stroke-width="2.66" stroke-miterlimit="10"/>
            <path d="M489.77 295.239L400.563 400.947L349.419 461.438C336.907 476.24 314.095 476.24 301.584 461.438L250.44 400.947L30.1816 140.136H180.305L309.201 292.613C314.739 298.921 321.02 304.65 327.655 309.695C359.677 334.017 403.328 341.546 443.627 326.314C461.933 319.387 477.465 308.621 489.77 295.23V295.239Z" stroke="#0044FF" stroke-width="2.66" stroke-miterlimit="10"/>
            <path d="M611.742 650.818H461.627L348.568 517.106L423.63 428.174L611.742 650.818Z" stroke="#0044FF" stroke-width="2.66" stroke-miterlimit="10"/>
            <path d="M303.812 515.414L189.532 650.818H39.4082L228.907 426.639L303.812 515.414Z" stroke="#0044FF" stroke-width="2.66" stroke-miterlimit="10"/>
        </g>
        <g opacity="0.88">
            <path d="M711.538 21.0361H561.803L466.67 133.621L449.058 154.443L340.216 283.375L322.167 304.766C354.288 328.922 397.823 336.6 438.114 321.385C455.462 314.813 470.343 304.84 482.276 292.39C482.945 291.688 483.614 290.986 484.274 290.285L490.579 282.912L615.464 135.19L668.672 72.1234H668.375L711.538 21.0361Z" stroke="url(#paint25_linear_3_763)" stroke-width="2.72" stroke-miterlimit="10"/>
            <path d="M484.265 290.285L395.058 395.993L343.914 456.484C331.402 471.287 308.591 471.287 296.079 456.484L244.935 395.993L24.6768 135.19H174.8L303.697 287.668C309.234 293.976 315.515 299.705 322.15 304.749C354.172 329.071 397.823 336.601 438.122 321.369C456.428 314.442 471.96 303.676 484.265 290.285Z" stroke="#0044FF" stroke-width="2.72" stroke-miterlimit="10"/>
            <path d="M606.246 645.864H456.123L343.072 512.161L418.134 423.229L606.246 645.864Z" stroke="#0044FF" stroke-width="2.72" stroke-miterlimit="10"/>
            <path d="M298.307 510.469L184.027 645.865H33.9033L223.402 421.686L298.307 510.469Z" stroke="#0044FF" stroke-width="2.72" stroke-miterlimit="10"/>
        </g>
        <g opacity="0.91">
            <path d="M706.041 16.082H556.306L461.173 128.667L443.561 149.489L334.719 278.42L316.67 299.811C348.791 323.968 392.326 331.646 432.617 316.43C449.965 309.859 464.846 299.886 476.779 287.436C477.448 286.734 478.116 286.032 478.777 285.331L485.082 277.958L609.967 130.236L663.175 67.1693H662.878L706.041 16.082Z" stroke="url(#paint26_linear_3_763)" stroke-width="2.79" stroke-miterlimit="10"/>
            <path d="M478.769 285.339L389.561 391.047L338.417 451.538C325.905 466.34 303.094 466.34 290.582 451.538L239.438 391.047L19.1719 130.244H169.295L298.192 282.722C303.729 289.029 310.01 294.759 316.645 299.803C348.667 324.125 392.318 331.654 432.618 316.422C450.923 309.496 466.455 298.73 478.761 285.339H478.769Z" stroke="#0044FF" stroke-width="2.79" stroke-miterlimit="10"/>
            <path d="M600.741 640.919H450.618L337.567 507.207L412.629 418.274L600.741 640.919Z" stroke="#0044FF" stroke-width="2.79" stroke-miterlimit="10"/>
            <path d="M292.811 505.515L178.522 640.919H28.4072L217.898 416.739L292.811 505.515Z" stroke="#0044FF" stroke-width="2.79" stroke-miterlimit="10"/>
        </g>
        <g opacity="0.94">
            <path d="M700.538 11.1367H550.802L455.669 123.722L438.057 144.543L329.215 273.475L311.166 294.866C343.287 319.023 386.822 326.701 427.113 311.485C444.461 304.914 459.342 294.94 471.276 282.491C471.944 281.789 472.613 281.087 473.273 280.385L479.578 273.013L604.464 125.291L657.671 62.224H657.374L700.538 11.1367Z" stroke="url(#paint27_linear_3_763)" stroke-width="2.86" stroke-miterlimit="10"/>
            <path d="M473.264 280.386L384.057 386.094L332.913 446.585C320.401 461.387 297.59 461.387 285.078 446.585L233.934 386.094L13.6758 125.291H163.799L292.696 277.769C298.233 284.076 304.514 289.806 311.149 294.85C343.171 319.172 386.822 326.701 427.122 311.469C445.427 304.542 460.959 293.777 473.264 280.386Z" stroke="#0044FF" stroke-width="2.86" stroke-miterlimit="10"/>
            <path d="M595.236 635.965H445.113L332.062 502.261L407.124 413.329L595.236 635.965Z" stroke="#0044FF" stroke-width="2.86" stroke-miterlimit="10"/>
            <path d="M287.306 500.57L173.017 635.966H22.9023L212.401 411.786L287.306 500.57Z" stroke="#0044FF" stroke-width="2.86" stroke-miterlimit="10"/>
        </g>
        <g opacity="0.97">
            <path d="M695.033 6.18359H545.297L450.164 118.769L432.552 139.59L323.711 268.522L305.661 289.913C337.782 314.07 381.317 321.748 421.608 306.532C438.956 299.96 453.837 289.987 465.771 277.537C466.439 276.836 467.108 276.134 467.768 275.432L474.073 268.06L598.959 120.337L652.166 57.2709H651.869L695.033 6.18359Z" stroke="url(#paint28_linear_3_763)" stroke-width="2.93" stroke-miterlimit="10"/>
            <path d="M467.76 275.44L378.552 381.149L327.408 441.639C314.896 456.442 292.085 456.442 279.573 441.639L228.429 381.149L8.1709 120.346H158.294L287.191 272.823C292.728 279.131 299.009 284.86 305.644 289.905C337.666 314.226 381.317 321.756 421.617 306.524C439.922 299.597 455.454 288.831 467.76 275.44Z" stroke="#0044FF" stroke-width="2.93" stroke-miterlimit="10"/>
            <path d="M589.731 631.02H439.616L326.558 497.308L401.619 408.376L589.731 631.02Z" stroke="#0044FF" stroke-width="2.93" stroke-miterlimit="10"/>
            <path d="M281.801 495.616L167.521 631.021H17.3975L206.896 406.841L281.801 495.616Z" stroke="#0044FF" stroke-width="2.93" stroke-miterlimit="10"/>
        </g>
        <path d="M689.528 1.23828H539.792L444.659 113.824L427.047 134.645L318.206 263.577L300.156 284.968C332.277 309.124 375.812 316.802 416.104 301.587C433.452 295.015 448.291 285.001 460.266 272.592C460.934 271.89 461.603 271.189 462.263 270.487L468.568 263.114L593.454 115.392L646.661 52.3256H646.364L689.528 1.23828Z" stroke="url(#paint29_linear_3_763)" stroke-width="3" stroke-miterlimit="10"/>
        <path d="M462.255 270.487L373.047 376.195L321.903 436.686C309.391 451.489 286.58 451.489 274.068 436.686L222.924 376.195L2.66602 115.393H152.789L281.686 267.87C287.224 274.178 293.529 279.874 300.14 284.952C332.285 309.108 375.812 316.803 416.112 301.571C434.417 294.644 449.949 283.878 462.255 270.487Z" stroke="#0044FF" stroke-width="3" stroke-miterlimit="10"/>
        <path d="M584.235 626.075H434.112L321.062 492.363L396.123 403.431L584.235 626.075Z" stroke="#0044FF" stroke-width="3" stroke-miterlimit="10"/>
        <path d="M276.296 490.671L162.016 626.076H11.8926L201.391 401.888L276.296 490.671Z" stroke="#0044FF" stroke-width="3" stroke-miterlimit="10"/>
    </g>
    <defs>
        <linearGradient id="paint0_linear_3_763" x1="459.135" y1="298.846" x2="850" y2="298.846" gradientUnits="userSpaceOnUse">
            <stop stop-color="#009FFF"/>
            <stop offset="1" stop-color="#00FFA9"/>
        </linearGradient>
        <linearGradient id="paint1_linear_3_763" x1="453.596" y1="293.9" x2="844.561" y2="293.9" gradientUnits="userSpaceOnUse">
            <stop stop-color="#009FFF"/>
            <stop offset="1" stop-color="#00FFA9"/>
        </linearGradient>
        <linearGradient id="paint2_linear_3_763" x1="448.05" y1="288.947" x2="839.114" y2="288.947" gradientUnits="userSpaceOnUse">
            <stop stop-color="#009FFF"/>
            <stop offset="1" stop-color="#00FFA9"/>
        </linearGradient>
        <linearGradient id="paint3_linear_3_763" x1="442.505" y1="284.002" x2="833.676" y2="284.002" gradientUnits="userSpaceOnUse">
            <stop stop-color="#009FFF"/>
            <stop offset="1" stop-color="#00FFA9"/>
        </linearGradient>
        <linearGradient id="paint4_linear_3_763" x1="436.959" y1="279.048" x2="828.237" y2="279.048" gradientUnits="userSpaceOnUse">
            <stop stop-color="#009FFF"/>
            <stop offset="1" stop-color="#00FFA9"/>
        </linearGradient>
        <linearGradient id="paint5_linear_3_763" x1="431.421" y1="274.103" x2="822.789" y2="274.103" gradientUnits="userSpaceOnUse">
            <stop stop-color="#009FFF"/>
            <stop offset="1" stop-color="#00FFA9"/>
        </linearGradient>
        <linearGradient id="paint6_linear_3_763" x1="425.875" y1="269.158" x2="817.351" y2="269.158" gradientUnits="userSpaceOnUse">
            <stop stop-color="#009FFF"/>
            <stop offset="1" stop-color="#00FFA9"/>
        </linearGradient>
        <linearGradient id="paint7_linear_3_763" x1="420.329" y1="264.204" x2="811.913" y2="264.204" gradientUnits="userSpaceOnUse">
            <stop stop-color="#009FFF"/>
            <stop offset="1" stop-color="#00FFA9"/>
        </linearGradient>
        <linearGradient id="paint8_linear_3_763" x1="414.791" y1="259.259" x2="806.466" y2="259.259" gradientUnits="userSpaceOnUse">
            <stop stop-color="#009FFF"/>
            <stop offset="1" stop-color="#00FFA9"/>
        </linearGradient>
        <linearGradient id="paint9_linear_3_763" x1="409.245" y1="254.305" x2="801.026" y2="254.305" gradientUnits="userSpaceOnUse">
            <stop stop-color="#009FFF"/>
            <stop offset="1" stop-color="#00FFA9"/>
        </linearGradient>
        <linearGradient id="paint10_linear_3_763" x1="403.699" y1="249.36" x2="795.587" y2="249.36" gradientUnits="userSpaceOnUse">
            <stop stop-color="#009FFF"/>
            <stop offset="1" stop-color="#00FFA9"/>
        </linearGradient>
        <linearGradient id="paint11_linear_3_763" x1="398.153" y1="244.407" x2="790.14" y2="244.407" gradientUnits="userSpaceOnUse">
            <stop stop-color="#009FFF"/>
            <stop offset="1" stop-color="#00FFA9"/>
        </linearGradient>
        <linearGradient id="paint12_linear_3_763" x1="392.615" y1="239.461" x2="784.701" y2="239.461" gradientUnits="userSpaceOnUse">
            <stop stop-color="#009FFF"/>
            <stop offset="1" stop-color="#00FFA9"/>
        </linearGradient>
        <linearGradient id="paint13_linear_3_763" x1="387.068" y1="234.516" x2="779.262" y2="234.516" gradientUnits="userSpaceOnUse">
            <stop stop-color="#009FFF"/>
            <stop offset="1" stop-color="#00FFA9"/>
        </linearGradient>
        <linearGradient id="paint14_linear_3_763" x1="381.523" y1="229.563" x2="773.816" y2="229.563" gradientUnits="userSpaceOnUse">
            <stop stop-color="#009FFF"/>
            <stop offset="1" stop-color="#00FFA9"/>
        </linearGradient>
        <linearGradient id="paint15_linear_3_763" x1="375.977" y1="224.617" x2="768.377" y2="224.617" gradientUnits="userSpaceOnUse">
            <stop stop-color="#009FFF"/>
            <stop offset="1" stop-color="#00FFA9"/>
        </linearGradient>
        <linearGradient id="paint16_linear_3_763" x1="370.439" y1="219.664" x2="762.938" y2="219.664" gradientUnits="userSpaceOnUse">
            <stop stop-color="#009FFF"/>
            <stop offset="1" stop-color="#00FFA9"/>
        </linearGradient>
        <linearGradient id="paint17_linear_3_763" x1="364.893" y1="214.719" x2="757.499" y2="214.719" gradientUnits="userSpaceOnUse">
            <stop stop-color="#009FFF"/>
            <stop offset="1" stop-color="#00FFA9"/>
        </linearGradient>
        <linearGradient id="paint18_linear_3_763" x1="359.346" y1="209.765" x2="752.052" y2="209.765" gradientUnits="userSpaceOnUse">
            <stop stop-color="#009FFF"/>
            <stop offset="1" stop-color="#00FFA9"/>
        </linearGradient>
        <linearGradient id="paint19_linear_3_763" x1="353.801" y1="204.819" x2="746.614" y2="204.819" gradientUnits="userSpaceOnUse">
            <stop stop-color="#009FFF"/>
            <stop offset="1" stop-color="#00FFA9"/>
        </linearGradient>
        <linearGradient id="paint20_linear_3_763" x1="348.263" y1="199.874" x2="741.175" y2="199.874" gradientUnits="userSpaceOnUse">
            <stop stop-color="#009FFF"/>
            <stop offset="1" stop-color="#00FFA9"/>
        </linearGradient>
        <linearGradient id="paint21_linear_3_763" x1="342.717" y1="194.921" x2="735.728" y2="194.921" gradientUnits="userSpaceOnUse">
            <stop stop-color="#009FFF"/>
            <stop offset="1" stop-color="#00FFA9"/>
        </linearGradient>
        <linearGradient id="paint22_linear_3_763" x1="337.17" y1="189.976" x2="730.289" y2="189.976" gradientUnits="userSpaceOnUse">
            <stop stop-color="#009FFF"/>
            <stop offset="1" stop-color="#00FFA9"/>
        </linearGradient>
        <linearGradient id="paint23_linear_3_763" x1="331.625" y1="185.022" x2="724.851" y2="185.022" gradientUnits="userSpaceOnUse">
            <stop stop-color="#009FFF"/>
            <stop offset="1" stop-color="#00FFA9"/>
        </linearGradient>
        <linearGradient id="paint24_linear_3_763" x1="326.087" y1="180.077" x2="719.404" y2="180.077" gradientUnits="userSpaceOnUse">
            <stop stop-color="#009FFF"/>
            <stop offset="1" stop-color="#00FFA9"/>
        </linearGradient>
        <linearGradient id="paint25_linear_3_763" x1="320.541" y1="175.124" x2="713.965" y2="175.124" gradientUnits="userSpaceOnUse">
            <stop stop-color="#009FFF"/>
            <stop offset="1" stop-color="#00FFA9"/>
        </linearGradient>
        <linearGradient id="paint26_linear_3_763" x1="314.995" y1="170.178" x2="708.526" y2="170.178" gradientUnits="userSpaceOnUse">
            <stop stop-color="#009FFF"/>
            <stop offset="1" stop-color="#00FFA9"/>
        </linearGradient>
        <linearGradient id="paint27_linear_3_763" x1="309.449" y1="165.232" x2="703.079" y2="165.232" gradientUnits="userSpaceOnUse">
            <stop stop-color="#009FFF"/>
            <stop offset="1" stop-color="#00FFA9"/>
        </linearGradient>
        <linearGradient id="paint28_linear_3_763" x1="303.911" y1="160.279" x2="697.641" y2="160.279" gradientUnits="userSpaceOnUse">
            <stop stop-color="#009FFF"/>
            <stop offset="1" stop-color="#00FFA9"/>
        </linearGradient>
        <linearGradient id="paint29_linear_3_763" x1="298.365" y1="155.334" x2="692.202" y2="155.334" gradientUnits="userSpaceOnUse">
            <stop stop-color="#009FFF"/>
            <stop offset="1" stop-color="#00FFA9"/>
        </linearGradient>
        <clipPath id="clip0_3_763">
            <rect width="850" height="770" fill="white"/>
        </clipPath>
    </defs>
</svg>
