<svg width="40" height="40" viewBox="0 0 40 40" fill="none" xmlns="http://www.w3.org/2000/svg">
    <rect width="40" height="40" rx="20" fill="white"/>
    <path d="M20 25.4167C22.9916 25.4167 25.4167 22.9915 25.4167 20C25.4167 17.0085 22.9916 14.5833 20 14.5833C17.0085 14.5833 14.5834 17.0085 14.5834 20C14.5834 22.9915 17.0085 25.4167 20 25.4167Z" stroke="#0044FF" stroke-width="1.5" stroke-linecap="round" stroke-linejoin="round"/>
    <path d="M25.95 25.95L25.8416 25.8417M25.8416 14.1583L25.95 14.05L25.8416 14.1583ZM14.05 25.95L14.1583 25.8417L14.05 25.95ZM20 11.7333V11.6667V11.7333ZM20 28.3333V28.2667V28.3333ZM11.7333 20H11.6666H11.7333ZM28.3333 20H28.2666H28.3333ZM14.1583 14.1583L14.05 14.05L14.1583 14.1583Z" stroke="#0044FF" stroke-width="2" stroke-linecap="round" stroke-linejoin="round"/>
</svg>
