<svg width="40" height="40" viewBox="0 0 40 40" fill="none" xmlns="http://www.w3.org/2000/svg">
    <rect width="40" height="40" rx="10" fill="#25D998"/>
    <path d="M16.667 11.6667V14.1667" stroke="#1E1E1E" stroke-width="1.5" stroke-miterlimit="10" stroke-linecap="round" stroke-linejoin="round"/>
    <path d="M23.333 11.6667V14.1667" stroke="#1E1E1E" stroke-width="1.5" stroke-miterlimit="10" stroke-linecap="round" stroke-linejoin="round"/>
    <path d="M12.917 17.575H27.0837" stroke="#1E1E1E" stroke-width="1.5" stroke-miterlimit="10" stroke-linecap="round" stroke-linejoin="round"/>
    <path d="M27.5 17.0833V24.1667C27.5 26.6667 26.25 28.3333 23.3333 28.3333H16.6667C13.75 28.3333 12.5 26.6667 12.5 24.1667V17.0833C12.5 14.5833 13.75 12.9167 16.6667 12.9167H23.3333C26.25 12.9167 27.5 14.5833 27.5 17.0833Z" stroke="#1E1E1E" stroke-width="1.5" stroke-miterlimit="10" stroke-linecap="round" stroke-linejoin="round"/>
    <path d="M23.0791 21.4167H23.0866" stroke="#1E1E1E" stroke-width="2" stroke-linecap="round" stroke-linejoin="round"/>
    <path d="M23.0791 23.9167H23.0866" stroke="#1E1E1E" stroke-width="2" stroke-linecap="round" stroke-linejoin="round"/>
    <path d="M19.9961 21.4167H20.0036" stroke="#1E1E1E" stroke-width="2" stroke-linecap="round" stroke-linejoin="round"/>
    <path d="M19.9961 23.9167H20.0036" stroke="#1E1E1E" stroke-width="2" stroke-linecap="round" stroke-linejoin="round"/>
    <path d="M16.9121 21.4167H16.9196" stroke="#1E1E1E" stroke-width="2" stroke-linecap="round" stroke-linejoin="round"/>
    <path d="M16.9121 23.9167H16.9196" stroke="#1E1E1E" stroke-width="2" stroke-linecap="round" stroke-linejoin="round"/>
</svg>
