<svg width="127" height="21" viewBox="0 0 127 21" fill="none" xmlns="http://www.w3.org/2000/svg">
    <g clip-path="url(#clip0_3_25)">
        <path d="M25.2387 0.5V20.1326H22.0875V1.54647L23.1132 1.5987L14.3825 20.1326H10.8562L2.12545 1.62572L3.15118 1.57349V20.1344H0V0.5H5.0529L13.4566 18.6412H11.8062L20.1858 0.5H25.2387Z" fill="#0A008C"/>
        <path d="M43.0976 12.7244C42.7809 14.277 42.256 15.6387 41.5211 16.8076C40.7863 17.9766 39.8827 18.8844 38.8071 19.5292C37.7315 20.1758 36.5354 20.4982 35.2171 20.4982C33.8334 20.4982 32.608 20.1704 31.541 19.5166C30.474 18.8628 29.6393 17.9496 29.0404 16.7806C28.4397 15.6117 28.1403 14.259 28.1403 12.7226C28.1403 11.1862 28.4397 9.81196 29.0404 8.65202C29.641 7.49208 30.474 6.5843 31.541 5.92868C32.608 5.27486 33.8334 4.94705 35.2171 4.94705C36.6008 4.94705 37.7315 5.26946 38.8071 5.91607C39.8827 6.56269 40.7914 7.46506 41.5332 8.62501C42.275 9.78495 42.7964 11.1502 43.0976 12.7208V12.7244ZM31.4412 12.7244C31.4412 13.7187 31.6374 14.5958 32.0298 15.3559C32.4204 16.1142 32.9591 16.7086 33.6423 17.1355C34.3256 17.5641 35.1086 17.7767 35.9933 17.7767C36.8779 17.7767 37.7263 17.5641 38.4939 17.1355C39.2597 16.7086 39.9395 16.1142 40.5316 15.3559C41.1236 14.5958 41.5952 13.7187 41.9445 12.7244C41.5952 11.7302 41.1236 10.853 40.5316 10.0929C39.9395 9.33466 39.2597 8.74028 38.4939 8.31341C37.7263 7.88653 36.8933 7.6722 35.9933 7.6722C35.0932 7.6722 34.3256 7.88653 33.6423 8.31341C32.9591 8.74208 32.4204 9.33466 32.0298 10.0929C31.6374 10.853 31.4412 11.7302 31.4412 12.7244ZM42.096 20.1326L41.5452 14.6355L42.1958 12.7244L41.5452 10.8404L42.096 5.31629H45.4485L44.6981 12.7244L45.4485 20.1326H42.096Z" fill="#0A008C"/>
        <path d="M79.442 14.295C79.2751 15.5162 78.8173 16.5951 78.0669 17.5281C77.3165 18.4629 76.3579 19.1906 75.1911 19.7147C74.0242 20.2388 72.7232 20.5 71.2896 20.5C69.6546 20.5 68.2175 20.1722 66.975 19.5184C65.7324 18.8646 64.7617 17.9514 64.0613 16.7824C63.3608 15.6135 63.0115 14.2608 63.0115 12.7244C63.0115 11.188 63.3608 9.83538 64.0613 8.66643C64.7617 7.49748 65.7324 6.5843 66.975 5.93048C68.2175 5.27666 69.6546 4.94885 71.2896 4.94885C72.7232 4.94885 74.0242 5.21002 75.1911 5.73415C76.3579 6.25829 77.3183 6.98596 78.0669 7.92075C78.8173 8.85375 79.2751 9.94165 79.442 11.179H76.1652C75.9311 10.0623 75.3735 9.18877 74.4889 8.56196C73.6043 7.93336 72.5373 7.61996 71.2878 7.61996C70.2879 7.61996 69.4119 7.82529 68.6616 8.23596C67.9112 8.64662 67.3312 9.23019 66.9233 9.99028C66.5137 10.7504 66.3107 11.6617 66.3107 12.7262C66.3107 13.7907 66.5137 14.6805 66.9233 15.4496C67.3312 16.2169 67.9112 16.8058 68.6616 17.2165C69.4119 17.6272 70.2879 17.8325 71.2878 17.8325C72.5545 17.8325 73.6301 17.5101 74.5147 16.8635C75.3993 16.2169 75.9483 15.3631 76.1652 14.2986H79.442V14.295Z" fill="#0A008C"/>
        <path d="M89.7474 20.5C88.0299 20.5 86.524 20.1722 85.2332 19.5184C83.9407 18.8646 82.9322 17.9514 82.206 16.7824C81.4797 15.6135 81.1183 14.2608 81.1183 12.7244C81.1183 11.188 81.4814 9.81377 82.206 8.65382C82.9305 7.49388 83.939 6.5861 85.2332 5.93048C86.5257 5.27666 88.0299 4.94885 89.7474 4.94885C91.465 4.94885 92.9709 5.27666 94.2617 5.93048C95.5542 6.5843 96.5627 7.49208 97.2889 8.65382C98.0152 9.81377 98.3766 11.1718 98.3766 12.7244C98.3766 14.277 98.0135 15.6135 97.2889 16.7824C96.5627 17.9514 95.5542 18.8646 94.2617 19.5184C92.9692 20.1722 91.4633 20.5 89.7474 20.5ZM89.7474 17.8289C90.8489 17.8289 91.7937 17.62 92.5871 17.2003C93.3788 16.7806 93.9915 16.1916 94.4252 15.4334C94.8589 14.6733 95.0757 13.7709 95.0757 12.7244C95.0757 11.678 94.8589 10.7738 94.4252 10.0155C93.9915 9.25541 93.3788 8.66643 92.5871 8.24856C91.7955 7.8307 90.8489 7.61996 89.7474 7.61996C88.646 7.61996 87.7218 7.8289 86.9215 8.24856C86.1213 8.66823 85.5034 9.25721 85.0697 10.0155C84.636 10.7738 84.4192 11.678 84.4192 12.7244C84.4192 13.7709 84.636 14.6751 85.0697 15.4334C85.5034 16.1934 86.1196 16.7824 86.9215 17.2003C87.7218 17.6182 88.6632 17.8289 89.7474 17.8289Z" fill="#0A008C"/>
        <path d="M100.352 5.31629H103.603L104.453 10.6567V20.1326H101.202V10.1578L100.352 5.31449V5.31629ZM109.682 4.95065C110.933 4.95065 111.995 5.22983 112.871 5.78819C113.747 6.34655 114.413 7.14626 114.872 8.18372C115.332 9.22299 115.561 10.4748 115.561 11.9409V20.1344H112.31V12.4903C112.31 10.9377 111.997 9.76334 111.372 8.96903C110.747 8.17472 109.833 7.77846 108.634 7.77846C107.784 7.77846 107.045 7.9928 106.421 8.41967C105.796 8.84655 105.312 9.44453 104.97 10.2118C104.627 10.9809 104.457 11.8797 104.457 12.9081L103.306 12.2543C103.455 10.7179 103.818 9.41031 104.393 8.32782C104.968 7.24532 105.71 6.41319 106.62 5.82781C107.529 5.24244 108.549 4.95065 109.684 4.95065H109.682ZM120.764 4.95065C122.015 4.95065 123.082 5.22983 123.965 5.78819C124.849 6.34655 125.519 7.14626 125.978 8.18372C126.438 9.22299 126.667 10.4748 126.667 11.9409V20.1344H123.416V12.4903C123.416 10.9377 123.102 9.76334 122.478 8.96903C121.853 8.17472 120.939 7.77846 119.74 7.77846C118.889 7.77846 118.151 7.9928 117.526 8.41967C116.9 8.84655 116.416 9.44453 116.075 10.2118C115.733 10.9809 115.563 11.8797 115.563 12.9081L114.411 12.2543C114.561 10.7179 114.924 9.41031 115.499 8.32782C116.074 7.24532 116.816 6.41319 117.724 5.82781C118.633 5.24244 119.647 4.95065 120.764 4.95065Z" fill="#0A008C"/>
        <path d="M65.7134 1.85986H61.5279L58.8689 5.15237L58.3767 5.76116L55.334 9.53277L54.8297 10.1578C55.7281 10.8638 56.9448 11.089 58.0704 10.6441C58.5557 10.4514 58.9705 10.1596 59.3043 9.79574C59.3233 9.77593 59.3422 9.75432 59.3611 9.7345L59.5367 9.51836L63.0286 5.1974L64.5156 3.35302H64.507L65.7134 1.85806V1.85986Z" fill="url(#paint0_linear_3_25)"/>
        <path d="M59.3612 9.73449L56.8674 12.8253L55.4373 14.594C55.0879 15.0263 54.4494 15.0263 54.1 14.594L52.6699 12.8253L46.5121 5.19739H50.7079L54.3117 9.65704C54.4666 9.84076 54.6422 10.0083 54.828 10.156C55.7264 10.862 56.9432 11.0872 58.0704 10.6423C58.5816 10.4405 59.017 10.1253 59.3612 9.73269V9.73449Z" fill="#0044FF"/>
        <path d="M62.7705 20.1344H58.5747L55.4132 16.2223L57.5128 13.6214L62.7705 20.1344Z" fill="#0044FF"/>
        <path d="M54.162 16.1736L50.9678 20.1344H46.772L52.0693 13.5764L54.162 16.1736Z" fill="#0044FF"/>
    </g>
    <defs>
        <linearGradient id="paint0_linear_3_25" x1="54.8297" y1="6.36635" x2="65.7134" y2="6.36635" gradientUnits="userSpaceOnUse">
            <stop stop-color="#009FFF"/>
            <stop offset="1" stop-color="#00FFA9"/>
        </linearGradient>
        <clipPath id="clip0_3_25">
            <rect width="126.667" height="20" fill="white" transform="translate(0 0.5)"/>
        </clipPath>
    </defs>
</svg>
