<svg width="201" height="25" viewBox="0 0 201 25" fill="none" xmlns="http://www.w3.org/2000/svg">
    <path d="M29.6887 0.718933V23.813H25.9819V1.94991L27.1885 2.01136L16.9184 23.813H12.7703L2.50021 2.04314L3.70678 1.98169V23.8152H0V0.718933H5.94381L15.8292 22.0587H13.8878L23.7449 0.718933H29.6887Z" fill="#F5F5F5"/>
    <path d="M50.6966 15.0987C50.3241 16.9251 49.7066 18.5268 48.8421 19.9019C47.9777 21.2769 46.9149 22.3448 45.6496 23.1033C44.3843 23.8639 42.9773 24.2431 41.4266 24.2431C39.7989 24.2431 38.3575 23.8575 37.1023 23.0884C35.8472 22.3193 34.8653 21.2451 34.1608 19.8701C33.4542 18.495 33.102 16.9039 33.102 15.0966C33.102 13.2893 33.4542 11.6727 34.1608 10.3083C34.8673 8.94383 35.8472 7.87599 37.1023 7.10478C38.3575 6.33568 39.7989 5.95007 41.4266 5.95007C43.0542 5.95007 44.3843 6.32932 45.6496 7.08995C46.9149 7.85057 47.9838 8.91205 48.8563 10.2765C49.7289 11.641 50.3423 13.247 50.6966 15.0945V15.0987ZM36.9849 15.0987C36.9849 16.2683 37.2157 17.3001 37.6773 18.1942C38.1368 19.0862 38.7705 19.7853 39.5742 20.2875C40.3779 20.7917 41.299 21.0418 42.3396 21.0418C43.3802 21.0418 44.3782 20.7917 45.2811 20.2875C46.182 19.7853 46.9817 19.0862 47.6781 18.1942C48.3745 17.3001 48.9292 16.2683 49.3402 15.0987C48.9292 13.9292 48.3745 12.8974 47.6781 12.0033C46.9817 11.1113 46.182 10.4121 45.2811 9.90997C44.3782 9.40783 43.3984 9.1557 42.3396 9.1557C41.2808 9.1557 40.3779 9.40783 39.5742 9.90997C38.7705 10.4142 38.1368 11.1113 37.6773 12.0033C37.2157 12.8974 36.9849 13.9292 36.9849 15.0987ZM49.5183 23.813L48.8705 17.3467L49.6357 15.0987L48.8705 12.8825L49.5183 6.38441H53.462L52.5793 15.0987L53.462 23.813H49.5183Z" fill="#F5F5F5"/>
    <path d="M93.4489 16.9462C93.2525 18.3827 92.714 19.6519 91.8314 20.7494C90.9487 21.849 89.8211 22.7049 88.4485 23.3215C87.0759 23.938 85.5454 24.2453 83.8591 24.2453C81.9358 24.2453 80.2454 23.8596 78.7838 23.0905C77.3221 22.3214 76.1803 21.2473 75.3563 19.8722C74.5324 18.4971 74.1214 16.906 74.1214 15.0987C74.1214 13.2914 74.5324 11.7003 75.3563 10.3252C76.1803 8.95017 77.3221 7.87598 78.7838 7.10688C80.2454 6.33779 81.9358 5.95218 83.8591 5.95218C85.5454 5.95218 87.0759 6.25939 88.4485 6.87594C89.8211 7.49249 90.9507 8.34846 91.8314 9.44808C92.714 10.5456 93.2525 11.8253 93.4489 13.2808H89.5944C89.319 11.9672 88.6631 10.9397 87.6225 10.2023C86.582 9.46291 85.3268 9.09425 83.857 9.09425C82.6808 9.09425 81.6504 9.33578 80.7677 9.81885C79.8851 10.3019 79.2028 10.9884 78.723 11.8825C78.2412 12.7766 78.0023 13.8487 78.0023 15.1008C78.0023 16.353 78.2412 17.3997 78.723 18.3043C79.2028 19.2069 79.8851 19.8997 80.7677 20.3828C81.6504 20.8659 82.6808 21.1074 83.857 21.1074C85.347 21.1074 86.6123 20.7282 87.6529 19.9675C88.6935 19.2069 89.3393 18.2026 89.5944 16.9505H93.4489V16.9462Z" fill="#F5F5F5"/>
    <path d="M105.571 24.2453C103.551 24.2453 101.78 23.8596 100.261 23.0905C98.7409 22.3214 97.5546 21.2473 96.7002 19.8722C95.8459 18.4971 95.4208 16.906 95.4208 15.0987C95.4208 13.2914 95.8479 11.6749 96.7002 10.3104C97.5525 8.94594 98.7389 7.8781 100.261 7.10688C101.782 6.33779 103.551 5.95218 105.571 5.95218C107.592 5.95218 109.363 6.33779 110.882 7.10688C112.402 7.87598 113.588 8.94382 114.443 10.3104C115.297 11.6749 115.722 13.2724 115.722 15.0987C115.722 16.9251 115.295 18.4971 114.443 19.8722C113.588 21.2473 112.402 22.3214 110.882 23.0905C109.361 23.8596 107.59 24.2453 105.571 24.2453ZM105.571 21.1032C106.867 21.1032 107.978 20.8574 108.912 20.3637C109.843 19.8701 110.564 19.1773 111.074 18.2853C111.584 17.3912 111.839 16.3297 111.839 15.0987C111.839 13.8677 111.584 12.8041 111.074 11.9122C110.564 11.0181 109.843 10.3252 108.912 9.83368C107.981 9.34214 106.867 9.09425 105.571 9.09425C104.276 9.09425 103.189 9.34002 102.247 9.83368C101.306 10.3273 100.579 11.0202 100.069 11.9122C99.5588 12.8041 99.3037 13.8677 99.3037 15.0987C99.3037 16.3297 99.5588 17.3933 100.069 18.2853C100.579 19.1794 101.304 19.8722 102.247 20.3637C103.189 20.8553 104.296 21.1032 105.571 21.1032Z" fill="#F5F5F5"/>
    <path d="M118.046 6.38442H121.87L122.87 12.6664V23.8131H119.046V12.0796L118.046 6.3823V6.38442ZM129.021 5.95432C130.492 5.95432 131.742 6.28272 132.772 6.93952C133.802 7.59633 134.586 8.53704 135.126 9.75743C135.667 10.9799 135.936 12.4524 135.936 14.1771V23.8152H132.112V14.8233C132.112 12.997 131.744 11.6156 131.009 10.6812C130.274 9.74683 129.199 9.28071 127.788 9.28071C126.788 9.28071 125.919 9.53284 125.184 10.035C124.449 10.5371 123.881 11.2405 123.478 12.1431C123.075 13.0478 122.874 14.1051 122.874 15.3148L121.52 14.5457C121.696 12.7385 122.123 11.2003 122.799 9.92693C123.476 8.65357 124.348 7.67472 125.419 6.98613C126.488 6.29755 127.689 5.95432 129.023 5.95432H129.021ZM142.056 5.95432C143.528 5.95432 144.783 6.28272 145.822 6.93952C146.862 7.59633 147.65 8.53704 148.19 9.75743C148.731 10.9799 149 12.4524 149 14.1771V23.8152H145.176V14.8233C145.176 12.997 144.807 11.6156 144.072 10.6812C143.338 9.74683 142.263 9.28071 140.852 9.28071C139.851 9.28071 138.983 9.53284 138.248 10.035C137.511 10.5371 136.942 11.2405 136.542 12.1431C136.139 13.0478 135.938 14.1051 135.938 15.3148L134.584 14.5457C134.76 12.7385 135.187 11.2003 135.863 9.92693C136.539 8.65357 137.412 7.67472 138.481 6.98613C139.55 6.29755 140.742 5.95432 142.056 5.95432Z" fill="#F5F5F5"/>
    <path d="M77.2998 2.31856H72.3763L69.2485 6.19159L68.6695 6.90771L65.0903 11.3443L64.4971 12.0795C65.5539 12.9101 66.9852 13.1749 68.3092 12.6516C68.8801 12.4249 69.3679 12.0816 69.7607 11.6537C69.783 11.6304 69.8052 11.6049 69.8275 11.5816L70.034 11.3274L74.1416 6.24455L75.8907 4.07498H75.8806L77.2998 2.31644V2.31856Z" fill="url(#paint0_linear_184_121)"/>
    <path d="M69.8276 11.5816L66.8941 15.2173L65.2118 17.2979C64.8008 17.8064 64.0497 17.8064 63.6388 17.2979L61.9565 15.2173L54.713 6.24454H59.6486L63.8878 11.4905C64.07 11.7066 64.2765 11.9037 64.4951 12.0774C65.5519 12.9079 66.9832 13.1728 68.3092 12.6494C68.9105 12.4121 69.4227 12.0414 69.8276 11.5795V11.5816Z" fill="#F5F5F5"/>
    <path d="M73.8381 23.8152H68.9024L65.1835 19.2133L67.6533 16.1538L73.8381 23.8152Z" fill="#F5F5F5"/>
    <path d="M63.7117 19.1561L59.9543 23.8151H55.0187L61.25 16.1009L63.7117 19.1561Z" fill="#F5F5F5"/>
    <path d="M192.674 24.2811C191.493 24.2811 190.489 24.0434 189.661 23.5681C188.848 23.0774 188.219 22.3721 187.775 21.4521C187.345 20.5321 187.131 19.4281 187.131 18.1401V11.0331H189.247V17.7951C189.247 19.3284 189.592 20.4937 190.282 21.2911C190.972 22.0731 191.976 22.4641 193.295 22.4641C194.23 22.4641 195.043 22.2571 195.733 21.8431C196.423 21.4137 196.959 20.8157 197.343 20.0491C197.726 19.2824 197.918 18.3931 197.918 17.3811L198.746 17.8641C198.654 19.1674 198.332 20.3021 197.78 21.2681C197.243 22.2341 196.538 22.9777 195.664 23.4991C194.79 24.0204 193.793 24.2811 192.674 24.2811ZM198.631 23.9821L197.918 19.5661V11.0331H200.034V19.8881L200.747 23.9821H198.631Z" fill="#F5F5F5"/>
    <path d="M182.011 23.9821L181.551 19.0371L182.172 17.5191L181.597 15.8861L182.494 6.27209H184.656L183.575 17.4041L184.173 23.9821H182.011ZM182.816 17.4961C182.479 18.8454 181.957 20.0338 181.252 21.0611C180.562 22.0731 179.719 22.8628 178.722 23.4301C177.741 23.9974 176.652 24.2811 175.456 24.2811C174.183 24.2811 173.056 23.9974 172.075 23.4301C171.094 22.8474 170.319 22.0501 169.752 21.0381C169.2 20.0108 168.924 18.8301 168.924 17.4961C168.924 16.1468 169.2 14.9661 169.752 13.9541C170.319 12.9421 171.094 12.1524 172.075 11.5851C173.056 11.0178 174.183 10.7341 175.456 10.7341C176.652 10.7341 177.741 11.0178 178.722 11.5851C179.719 12.1524 180.57 12.9421 181.275 13.9541C181.98 14.9661 182.494 16.1468 182.816 17.4961ZM171.086 17.4961C171.086 18.4774 171.285 19.3438 171.684 20.0951C172.098 20.8464 172.658 21.4368 173.363 21.8661C174.084 22.2801 174.896 22.4871 175.801 22.4871C176.721 22.4871 177.564 22.2801 178.331 21.8661C179.113 21.4368 179.803 20.8464 180.401 20.0951C181.014 19.3438 181.513 18.4774 181.896 17.4961C181.513 16.5148 181.014 15.6484 180.401 14.8971C179.803 14.1458 179.113 13.5631 178.331 13.1491C177.564 12.7198 176.721 12.5051 175.801 12.5051C174.896 12.5051 174.084 12.7198 173.363 13.1491C172.658 13.5631 172.098 14.1458 171.684 14.8971C171.285 15.6484 171.086 16.5148 171.086 17.4961Z" fill="#F5F5F5"/>
    <path d="M166.387 14.4371V16.2771H154.634V14.4371H166.387ZM155.991 15.3571L154.68 23.4531L153.53 22.0961H167.008V23.9821H152.472L153.898 15.3571L152.472 6.73209H166.893V8.61809H153.53L154.68 7.26109L155.991 15.3571Z" fill="#F5F5F5"/>
    <defs>
        <linearGradient id="paint0_linear_184_121" x1="75.2843" y1="1.89524" x2="65.692" y2="2.646" gradientUnits="userSpaceOnUse">
            <stop stop-color="#01F5B3"/>
            <stop offset="1" stop-color="#01AFF2"/>
        </linearGradient>
    </defs>
</svg>
