<svg width="149" height="24" viewBox="0 0 149 24" fill="none" xmlns="http://www.w3.org/2000/svg">
    <path d="M29.6887 0V23.0941H25.9819V1.23098L27.1885 1.29242L16.9184 23.0941H12.7703L2.50021 1.3242L3.70678 1.26276V23.0962H0V0H5.94381L15.8292 21.3398H13.8878L23.7449 0H29.6887Z" fill="#F5F5F5"/>
    <path d="M50.6966 14.3801C50.3241 16.2064 49.7067 17.8082 48.8422 19.1832C47.9778 20.5583 46.9149 21.6261 45.6496 22.3846C44.3844 23.1453 42.9774 23.5245 41.4266 23.5245C39.799 23.5245 38.3575 23.1389 37.1024 22.3698C35.8472 21.6007 34.8654 20.5265 34.1608 19.1515C33.4543 17.7764 33.1021 16.1853 33.1021 14.378C33.1021 12.5707 33.4543 10.9541 34.1608 9.58966C34.8674 8.2252 35.8472 7.15737 37.1024 6.38615C38.3575 5.61705 39.799 5.23145 41.4266 5.23145C43.0543 5.23145 44.3844 5.6107 45.6496 6.37132C46.9149 7.13194 47.9838 8.19342 48.8564 9.55788C49.7289 10.9223 50.3423 12.5283 50.6966 14.3759V14.3801ZM36.985 14.3801C36.985 15.5496 37.2158 16.5815 37.6773 17.4756C38.1369 18.3675 38.7705 19.0667 39.5742 19.5689C40.378 20.0731 41.2991 20.3231 42.3397 20.3231C43.3802 20.3231 44.3783 20.0731 45.2812 19.5689C46.1821 19.0667 46.9817 18.3675 47.6781 17.4756C48.3746 16.5815 48.9293 15.5496 49.3402 14.3801C48.9293 13.2106 48.3746 12.1787 47.6781 11.2846C46.9817 10.3927 46.1821 9.69348 45.2812 9.19134C44.3783 8.6892 43.3984 8.43708 42.3397 8.43708C41.2809 8.43708 40.378 8.6892 39.5742 9.19134C38.7705 9.6956 38.1369 10.3927 37.6773 11.2846C37.2158 12.1787 36.985 13.2106 36.985 14.3801ZM49.5184 23.0944L48.8706 16.6281L49.6358 14.3801L48.8706 12.1639L49.5184 5.66578H53.462L52.5794 14.3801L53.462 23.0944H49.5184Z" fill="#F5F5F5"/>
    <path d="M93.4489 16.2275C93.2525 17.664 92.714 18.9331 91.8313 20.0306C90.9487 21.1302 89.8211 21.9862 88.4485 22.6027C87.0759 23.2193 85.5454 23.5265 83.859 23.5265C81.9358 23.5265 80.2454 23.1409 78.7837 22.3718C77.3221 21.6027 76.1803 20.5285 75.3563 19.1534C74.5324 17.7784 74.1214 16.1872 74.1214 14.3799C74.1214 12.5727 74.5324 10.9815 75.3563 9.60645C76.1803 8.23139 77.3221 7.1572 78.7837 6.3881C80.2454 5.61901 81.9358 5.2334 83.859 5.2334C85.5454 5.2334 87.0759 5.54061 88.4485 6.15716C89.8211 6.77371 90.9507 7.62968 91.8313 8.72929C92.714 9.82679 93.2525 11.1065 93.4489 12.5621H89.5943C89.319 11.2485 88.6631 10.2209 87.6225 9.48356C86.5819 8.74413 85.3268 8.37547 83.857 8.37547C82.6808 8.37547 81.6504 8.617 80.7677 9.10007C79.885 9.58314 79.2028 10.2696 78.723 11.1637C78.2412 12.0578 78.0023 13.1299 78.0023 14.3821C78.0023 15.6342 78.2412 16.6809 78.723 17.5856C79.2028 18.4881 79.885 19.181 80.7677 19.664C81.6504 20.1471 82.6808 20.3886 83.857 20.3886C85.347 20.3886 86.6123 20.0094 87.6529 19.2488C88.6934 18.4881 89.3392 17.4839 89.5943 16.2317H93.4489V16.2275Z" fill="#F5F5F5"/>
    <path d="M105.571 23.5265C103.551 23.5265 101.78 23.1409 100.261 22.3718C98.7409 21.6027 97.5546 20.5285 96.7002 19.1534C95.8459 17.7784 95.4208 16.1872 95.4208 14.3799C95.4208 12.5727 95.8479 10.9561 96.7002 9.59162C97.5525 8.22716 98.7389 7.15932 100.261 6.3881C101.782 5.61901 103.551 5.2334 105.571 5.2334C107.592 5.2334 109.363 5.61901 110.882 6.3881C112.402 7.1572 113.588 8.22504 114.443 9.59162C115.297 10.9561 115.722 12.5536 115.722 14.3799C115.722 16.2063 115.295 17.7784 114.443 19.1534C113.588 20.5285 112.402 21.6027 110.882 22.3718C109.361 23.1409 107.59 23.5265 105.571 23.5265ZM105.571 20.3844C106.867 20.3844 107.978 20.1386 108.912 19.645C109.843 19.1513 110.564 18.4585 111.074 17.5665C111.584 16.6724 111.839 15.6109 111.839 14.3799C111.839 13.149 111.584 12.0854 111.074 11.1934C110.564 10.2993 109.843 9.60645 108.912 9.1149C107.981 8.62336 106.867 8.37547 105.571 8.37547C104.276 8.37547 103.189 8.62124 102.247 9.1149C101.306 9.60857 100.579 10.3014 100.069 11.1934C99.5588 12.0854 99.3037 13.149 99.3037 14.3799C99.3037 15.6109 99.5588 16.6745 100.069 17.5665C100.579 18.4606 101.304 19.1534 102.247 19.645C103.189 20.1365 104.296 20.3844 105.571 20.3844Z" fill="#F5F5F5"/>
    <path d="M118.046 5.66545H121.87L122.87 11.9475V23.0941H119.046V11.3606L118.046 5.66333V5.66545ZM129.021 5.23535C130.492 5.23535 131.741 5.56375 132.772 6.22056C133.802 6.87736 134.586 7.81808 135.126 9.03846C135.667 10.261 135.936 11.7335 135.936 13.4581V23.0962H132.112V14.1043C132.112 12.278 131.744 10.8966 131.009 9.96223C130.274 9.02787 129.199 8.56175 127.788 8.56175C126.788 8.56175 125.919 8.81388 125.184 9.31602C124.449 9.81816 123.881 10.5216 123.478 11.4241C123.075 12.3288 122.874 13.3861 122.874 14.5959L121.52 13.8268C121.696 12.0195 122.123 10.4813 122.799 9.20796C123.476 7.93461 124.348 6.95576 125.419 6.26717C126.488 5.57859 127.689 5.23535 129.023 5.23535H129.021ZM142.056 5.23535C143.528 5.23535 144.783 5.56375 145.822 6.22056C146.862 6.87736 147.65 7.81808 148.19 9.03846C148.731 10.261 149 11.7335 149 13.4581V23.0962H145.176V14.1043C145.176 12.278 144.807 10.8966 144.072 9.96223C143.338 9.02787 142.263 8.56175 140.852 8.56175C139.851 8.56175 138.983 8.81388 138.248 9.31602C137.511 9.81816 136.942 10.5216 136.541 11.4241C136.139 12.3288 135.938 13.3861 135.938 14.5959L134.584 13.8268C134.76 12.0195 135.187 10.4813 135.863 9.20796C136.539 7.93461 137.412 6.95576 138.481 6.26717C139.55 5.57859 140.742 5.23535 142.056 5.23535Z" fill="#F5F5F5"/>
    <path d="M77.2998 1.59978H72.3763L69.2485 5.4728L68.6695 6.18893L65.0903 10.6255L64.4971 11.3607C65.5539 12.1913 66.9852 12.4561 68.3092 11.9328C68.8801 11.7061 69.368 11.3629 69.7607 10.9349C69.783 10.9116 69.8053 10.8861 69.8275 10.8628L70.034 10.6086L74.1416 5.52577L75.8908 3.3562H75.8807L77.2998 1.59766V1.59978Z" fill="url(#paint0_linear_99_37)"/>
    <path d="M69.8276 10.8625L66.8941 14.4982L65.2118 16.5788C64.8008 17.0873 64.0497 17.0873 63.6388 16.5788L61.9565 14.4982L54.713 5.52539H59.6486L63.8878 10.7714C64.07 10.9875 64.2765 11.1845 64.4951 11.3582C65.5519 12.1888 66.9832 12.4536 68.3092 11.9303C68.9105 11.693 69.4227 11.3222 69.8276 10.8603V10.8625Z" fill="#F5F5F5"/>
    <path d="M73.838 23.0959H68.9023L65.1834 18.494L67.6532 15.4346L73.838 23.0959Z" fill="#F5F5F5"/>
    <path d="M63.7117 18.437L59.9543 23.0961H55.0187L61.25 15.3818L63.7117 18.437Z" fill="#F5F5F5"/>
    <defs>
        <linearGradient id="paint0_linear_99_37" x1="75.2843" y1="1.17646" x2="65.6921" y2="1.92722" gradientUnits="userSpaceOnUse">
            <stop stop-color="#01F5B3"/>
            <stop offset="1" stop-color="#01AFF2"/>
        </linearGradient>
    </defs>
</svg>
