<svg width="149" height="25" viewBox="0 0 149 25" fill="none" xmlns="http://www.w3.org/2000/svg">
<path d="M29.6887 0.718933V23.813H25.9819V1.94991L27.1885 2.01136L16.9184 23.813H12.7703L2.50021 2.04314L3.70678 1.98169V23.8152H0V0.718933H5.94381L15.8292 22.0587H13.8878L23.7449 0.718933H29.6887Z" fill="#F5F5F5"/>
<path d="M50.6966 15.0987C50.3241 16.9251 49.7067 18.5268 48.8422 19.9019C47.9778 21.2769 46.9149 22.3448 45.6496 23.1033C44.3844 23.8639 42.9774 24.2431 41.4266 24.2431C39.799 24.2431 38.3575 23.8575 37.1024 23.0884C35.8472 22.3193 34.8654 21.2451 34.1608 19.8701C33.4543 18.495 33.1021 16.9039 33.1021 15.0966C33.1021 13.2893 33.4543 11.6727 34.1608 10.3083C34.8674 8.94383 35.8472 7.87599 37.1024 7.10478C38.3575 6.33568 39.799 5.95007 41.4266 5.95007C43.0543 5.95007 44.3844 6.32932 45.6496 7.08995C46.9149 7.85057 47.9838 8.91205 48.8564 10.2765C49.7289 11.641 50.3423 13.247 50.6966 15.0945V15.0987ZM36.985 15.0987C36.985 16.2683 37.2158 17.3001 37.6773 18.1942C38.1369 19.0862 38.7705 19.7853 39.5742 20.2875C40.378 20.7917 41.2991 21.0418 42.3397 21.0418C43.3802 21.0418 44.3783 20.7917 45.2812 20.2875C46.1821 19.7853 46.9817 19.0862 47.6781 18.1942C48.3746 17.3001 48.9293 16.2683 49.3402 15.0987C48.9293 13.9292 48.3746 12.8974 47.6781 12.0033C46.9817 11.1113 46.1821 10.4121 45.2812 9.90997C44.3783 9.40783 43.3984 9.1557 42.3397 9.1557C41.2809 9.1557 40.378 9.40783 39.5742 9.90997C38.7705 10.4142 38.1369 11.1113 37.6773 12.0033C37.2158 12.8974 36.985 13.9292 36.985 15.0987ZM49.5184 23.813L48.8706 17.3467L49.6358 15.0987L48.8706 12.8825L49.5184 6.38441H53.462L52.5794 15.0987L53.462 23.813H49.5184Z" fill="#F5F5F5"/>
<path d="M93.4488 16.9462C93.2525 18.3827 92.7139 19.6519 91.8313 20.7494C90.9486 21.849 89.821 22.7049 88.4484 23.3215C87.0758 23.938 85.5454 24.2453 83.859 24.2453C81.9357 24.2453 80.2453 23.8596 78.7837 23.0905C77.322 22.3214 76.1802 21.2473 75.3563 19.8722C74.5323 18.4971 74.1213 16.906 74.1213 15.0987C74.1213 13.2914 74.5323 11.7003 75.3563 10.3252C76.1802 8.95017 77.322 7.87598 78.7837 7.10688C80.2453 6.33779 81.9357 5.95218 83.859 5.95218C85.5454 5.95218 87.0758 6.25939 88.4484 6.87594C89.821 7.49249 90.9506 8.34846 91.8313 9.44808C92.7139 10.5456 93.2525 11.8253 93.4488 13.2808H89.5943C89.3189 11.9672 88.663 10.9397 87.6224 10.2023C86.5819 9.46291 85.3267 9.09425 83.857 9.09425C82.6807 9.09425 81.6503 9.33578 80.7676 9.81885C79.885 10.3019 79.2027 10.9884 78.7229 11.8825C78.2411 12.7766 78.0022 13.8487 78.0022 15.1008C78.0022 16.353 78.2411 17.3997 78.7229 18.3043C79.2027 19.2069 79.885 19.8997 80.7676 20.3828C81.6503 20.8659 82.6807 21.1074 83.857 21.1074C85.347 21.1074 86.6122 20.7282 87.6528 19.9675C88.6934 19.2069 89.3392 18.2026 89.5943 16.9505H93.4488V16.9462Z" fill="#F5F5F5"/>
<path d="M105.571 24.2453C103.551 24.2453 101.779 23.8596 100.261 23.0905C98.7408 22.3214 97.5544 21.2473 96.7001 19.8722C95.8458 18.4971 95.4207 16.906 95.4207 15.0987C95.4207 13.2914 95.8478 11.6749 96.7001 10.3104C97.5524 8.94594 98.7387 7.8781 100.261 7.10688C101.781 6.33779 103.551 5.95218 105.571 5.95218C107.592 5.95218 109.363 6.33779 110.881 7.10688C112.402 7.87598 113.588 8.94382 114.442 10.3104C115.297 11.6749 115.722 13.2724 115.722 15.0987C115.722 16.9251 115.295 18.4971 114.442 19.8722C113.588 21.2473 112.402 22.3214 110.881 23.0905C109.361 23.8596 107.59 24.2453 105.571 24.2453ZM105.571 21.1032C106.867 21.1032 107.978 20.8574 108.912 20.3637C109.843 19.8701 110.564 19.1773 111.074 18.2853C111.584 17.3912 111.839 16.3297 111.839 15.0987C111.839 13.8677 111.584 12.8041 111.074 11.9122C110.564 11.0181 109.843 10.3252 108.912 9.83368C107.98 9.34214 106.867 9.09425 105.571 9.09425C104.276 9.09425 103.188 9.34002 102.247 9.83368C101.306 10.3273 100.579 11.0202 100.069 11.9122C99.5586 12.8041 99.3036 13.8677 99.3036 15.0987C99.3036 16.3297 99.5586 17.3933 100.069 18.2853C100.579 19.1794 101.304 19.8722 102.247 20.3637C103.188 20.8553 104.296 21.1032 105.571 21.1032Z" fill="#F5F5F5"/>
<path d="M118.046 6.38442H121.87L122.87 12.6664V23.8131H119.046V12.0796L118.046 6.3823V6.38442ZM129.021 5.95432C130.493 5.95432 131.742 6.28272 132.772 6.93952C133.803 7.59633 134.586 8.53704 135.126 9.75743C135.667 10.9799 135.936 12.4524 135.936 14.1771V23.8152H132.112V14.8233C132.112 12.997 131.744 11.6156 131.009 10.6812C130.274 9.74683 129.199 9.28071 127.788 9.28071C126.788 9.28071 125.919 9.53284 125.184 10.035C124.45 10.5371 123.881 11.2405 123.478 12.1431C123.075 13.0478 122.874 14.1051 122.874 15.3148L121.52 14.5457C121.696 12.7385 122.123 11.2003 122.8 9.92693C123.476 8.65357 124.348 7.67472 125.419 6.98613C126.488 6.29755 127.689 5.95432 129.023 5.95432H129.021ZM142.056 5.95432C143.528 5.95432 144.783 6.28272 145.822 6.93952C146.862 7.59633 147.65 8.53704 148.19 9.75743C148.731 10.9799 149 12.4524 149 14.1771V23.8152H145.176V14.8233C145.176 12.997 144.807 11.6156 144.073 10.6812C143.338 9.74683 142.263 9.28071 140.852 9.28071C139.852 9.28071 138.983 9.53284 138.248 10.035C137.511 10.5371 136.942 11.2405 136.542 12.1431C136.139 13.0478 135.938 14.1051 135.938 15.3148L134.584 14.5457C134.76 12.7385 135.187 11.2003 135.863 9.92693C136.54 8.65357 137.412 7.67472 138.481 6.98613C139.55 6.29755 140.742 5.95432 142.056 5.95432Z" fill="#F5F5F5"/>
<path d="M77.2997 2.31856H72.3763L69.2485 6.19159L68.6695 6.90771L65.0902 11.3443L64.4971 12.0795C65.5538 12.9101 66.9851 13.1749 68.3091 12.6516C68.88 12.4249 69.3679 12.0816 69.7607 11.6537C69.7829 11.6304 69.8052 11.6049 69.8275 11.5816L70.034 11.3274L74.1416 6.24455L75.8907 4.07498H75.8806L77.2997 2.31644V2.31856Z" fill="url(#paint0_linear_264_220)"/>
<path d="M69.8275 11.5816L66.894 15.2173L65.2117 17.2979C64.8008 17.8064 64.0497 17.8064 63.6387 17.2979L61.9564 15.2173L54.7129 6.24454H59.6485L63.8877 11.4905C64.0699 11.7066 64.2764 11.9037 64.4951 12.0774C65.5518 12.9079 66.9831 13.1728 68.3091 12.6494C68.9104 12.4121 69.4226 12.0414 69.8275 11.5795V11.5816Z" fill="#F5F5F5"/>
<path d="M73.8379 23.8152H68.9023L65.1833 19.2133L67.6532 16.1538L73.8379 23.8152Z" fill="#F5F5F5"/>
<path d="M63.7116 19.1561L59.9542 23.8151H55.0186L61.2498 16.1009L63.7116 19.1561Z" fill="#F5F5F5"/>
<defs>
<linearGradient id="paint0_linear_264_220" x1="75.2842" y1="1.89524" x2="65.692" y2="2.646" gradientUnits="userSpaceOnUse">
<stop stop-color="#01F5B3"/>
<stop offset="1" stop-color="#01AFF2"/>
</linearGradient>
</defs>
</svg>
