<svg width="40" height="41" viewBox="0 0 40 41" fill="none" xmlns="http://www.w3.org/2000/svg">
    <rect y="0.842773" width="40" height="40" rx="10" fill="#25D998"/>
    <path d="M17.6334 19.9012C17.55 19.8929 17.45 19.8929 17.3584 19.9012C15.375 19.8345 13.8 18.2095 13.8 16.2095C13.8 14.1679 15.45 12.5095 17.5 12.5095C19.5417 12.5095 21.2 14.1679 21.2 16.2095C21.1917 18.2095 19.6167 19.8345 17.6334 19.9012Z" stroke="#292D32" stroke-width="1.5" stroke-linecap="round" stroke-linejoin="round"/>
    <path d="M23.675 14.176C25.2916 14.176 26.5916 15.4844 26.5916 17.0927C26.5916 18.6677 25.3417 19.951 23.7833 20.0094C23.7167 20.001 23.6417 20.001 23.5667 20.0094" stroke="#292D32" stroke-width="1.5" stroke-linecap="round" stroke-linejoin="round"/>
    <path d="M13.4666 22.976C11.4499 24.326 11.4499 26.526 13.4666 27.8677C15.7583 29.401 19.5166 29.401 21.8083 27.8677C23.8249 26.5177 23.8249 24.3177 21.8083 22.976C19.5249 21.451 15.7666 21.451 13.4666 22.976Z" stroke="#292D32" stroke-width="1.5" stroke-linecap="round" stroke-linejoin="round"/>
    <path d="M25.2834 27.5095C25.8834 27.3845 26.4501 27.1429 26.9168 26.7845C28.2168 25.8095 28.2168 24.2012 26.9168 23.2262C26.4584 22.8762 25.9001 22.6429 25.3084 22.5095" stroke="#292D32" stroke-width="1.5" stroke-linecap="round" stroke-linejoin="round"/>
</svg>
