<svg width="40" height="41" viewBox="0 0 40 41" fill="none" xmlns="http://www.w3.org/2000/svg">
    <rect y="0.842773" width="40" height="40" rx="10" fill="#FF744D"/>
    <path d="M25.0001 16.8095C24.9501 16.8012 24.8918 16.8012 24.8418 16.8095C23.6918 16.7679 22.7751 15.8262 22.7751 14.6595C22.7751 13.4679 23.7335 12.5095 24.9251 12.5095C26.1168 12.5095 27.0751 13.4762 27.0751 14.6595C27.0668 15.8262 26.1501 16.7679 25.0001 16.8095Z" stroke="#292D32" stroke-width="1.5" stroke-linecap="round" stroke-linejoin="round"/>
    <path d="M24.1417 22.8761C25.2834 23.0677 26.5417 22.8677 27.425 22.2761C28.6 21.4927 28.6 20.2094 27.425 19.4261C26.5334 18.8344 25.2584 18.6344 24.1167 18.8344" stroke="#292D32" stroke-width="1.5" stroke-linecap="round" stroke-linejoin="round"/>
    <path d="M14.9749 16.8095C15.0249 16.8012 15.0832 16.8012 15.1332 16.8095C16.2832 16.7679 17.1999 15.8262 17.1999 14.6595C17.1999 13.4679 16.2416 12.5095 15.0499 12.5095C13.8582 12.5095 12.8999 13.4762 12.8999 14.6595C12.9082 15.8262 13.8249 16.7679 14.9749 16.8095Z" stroke="#292D32" stroke-width="1.5" stroke-linecap="round" stroke-linejoin="round"/>
    <path d="M15.8333 22.8761C14.6916 23.0677 13.4333 22.8677 12.55 22.2761C11.375 21.4927 11.375 20.2094 12.55 19.4261C13.4416 18.8344 14.7166 18.6344 15.8583 18.8344" stroke="#292D32" stroke-width="1.5" stroke-linecap="round" stroke-linejoin="round"/>
    <path d="M20.0001 23.0344C19.9501 23.026 19.8918 23.026 19.8418 23.0344C18.6918 22.9927 17.7751 22.051 17.7751 20.8844C17.7751 19.6927 18.7335 18.7344 19.9251 18.7344C21.1168 18.7344 22.0751 19.701 22.0751 20.8844C22.0668 22.051 21.1501 23.001 20.0001 23.0344Z" stroke="#292D32" stroke-width="1.5" stroke-linecap="round" stroke-linejoin="round"/>
    <path d="M17.5751 25.6593C16.4001 26.4427 16.4001 27.726 17.5751 28.5093C18.9084 29.401 21.0918 29.401 22.4251 28.5093C23.6001 27.726 23.6001 26.4427 22.4251 25.6593C21.1001 24.776 18.9084 24.776 17.5751 25.6593Z" stroke="#292D32" stroke-width="1.5" stroke-linecap="round" stroke-linejoin="round"/>
</svg>

