<svg width="40" height="41" viewBox="0 0 40 41" fill="none" xmlns="http://www.w3.org/2000/svg">
    <rect y="0.15625" width="40" height="40" rx="10" fill="#25D998"/>
    <path d="M17.4749 28.4897H22.4749C26.6416 28.4897 28.3083 26.823 28.3083 22.6563V17.6563C28.3083 13.4897 26.6416 11.823 22.4749 11.823H17.4749C13.3083 11.823 11.6416 13.4897 11.6416 17.6563V22.6563C11.6416 26.823 13.3083 28.4897 17.4749 28.4897Z" stroke="#292D32" stroke-width="1.5" stroke-linecap="round" stroke-linejoin="round"/>
    <path d="M11.6416 20.7396L16.6416 20.7229C17.2666 20.7229 17.9666 21.1979 18.1999 21.7813L19.1499 24.1813C19.3666 24.7229 19.7083 24.7229 19.9249 24.1813L21.8333 19.3396C22.0166 18.8729 22.3583 18.8563 22.5916 19.2979L23.4583 20.9396C23.7166 21.4313 24.3833 21.8313 24.9333 21.8313H28.3166" stroke="#292D32" stroke-width="1.5" stroke-linecap="round" stroke-linejoin="round"/>
</svg>