<svg width="40" height="40" viewBox="0 0 40 40" fill="none" xmlns="http://www.w3.org/2000/svg">
    <rect width="40" height="40" rx="10" fill="#6D8DFE"/>
    <path d="M20 14.6333H28.3333" stroke="#292D32" stroke-width="1.5" stroke-miterlimit="10" stroke-linecap="round" stroke-linejoin="round"/>
    <path d="M21.85 11.6667H26.4833C27.9667 11.6667 28.3333 12.0334 28.3333 13.5001V16.9251C28.3333 18.3917 27.9667 18.7584 26.4833 18.7584H21.85C20.3667 18.7584 20 18.3917 20 16.9251V13.5001C20 12.0334 20.3667 11.6667 21.85 11.6667Z" stroke="#292D32" stroke-width="1.5" stroke-linecap="round" stroke-linejoin="round"/>
    <path d="M11.6665 24.2166H19.9998" stroke="#292D32" stroke-width="1.5" stroke-miterlimit="10" stroke-linecap="round" stroke-linejoin="round"/>
    <path d="M13.5165 21.25H18.1498C19.6332 21.25 19.9998 21.6167 19.9998 23.0833V26.5083C19.9998 27.975 19.6332 28.3417 18.1498 28.3417H13.5165C12.0332 28.3417 11.6665 27.975 11.6665 26.5083V23.0833C11.6665 21.6167 12.0332 21.25 13.5165 21.25Z" stroke="#292D32" stroke-width="1.5" stroke-linecap="round" stroke-linejoin="round"/>
    <path d="M28.3333 22.5C28.3333 25.725 25.725 28.3333 22.5 28.3333L23.375 26.875" stroke="#292D32" stroke-width="1.5" stroke-linecap="round" stroke-linejoin="round"/>
    <path d="M11.6665 17.5001C11.6665 14.2751 14.2748 11.6667 17.4998 11.6667L16.6248 13.1251" stroke="#292D32" stroke-width="1.5" stroke-linecap="round" stroke-linejoin="round"/>
</svg>