<svg width="40" height="40" viewBox="0 0 40 40" fill="none" xmlns="http://www.w3.org/2000/svg">
    <rect width="40" height="40" rx="10" fill="#FF744D"/>
    <path d="M17.2266 21.9416C17.2266 23.0166 18.0516 23.8832 19.0766 23.8832H21.1682C22.0599 23.8832 22.7849 23.1249 22.7849 22.1916C22.7849 21.1749 22.3432 20.8166 21.6849 20.5832L18.3266 19.4166C17.6682 19.1832 17.2266 18.8249 17.2266 17.8082C17.2266 16.8749 17.9516 16.1166 18.8432 16.1166H20.9349C21.9599 16.1166 22.7849 16.9832 22.7849 18.0582" stroke="#292D32" stroke-width="1.5" stroke-linecap="round" stroke-linejoin="round"/>
    <path d="M20 15V25" stroke="#292D32" stroke-width="1.5" stroke-linecap="round" stroke-linejoin="round"/>
    <path d="M22.5003 28.3333H17.5003C13.3337 28.3333 11.667 26.6666 11.667 22.5V17.5C11.667 13.3333 13.3337 11.6666 17.5003 11.6666H22.5003C26.667 11.6666 28.3337 13.3333 28.3337 17.5V22.5C28.3337 26.6666 26.667 28.3333 22.5003 28.3333Z" stroke="#292D32" stroke-width="1.5" stroke-linecap="round" stroke-linejoin="round"/>
</svg>
