<svg width="40" height="41" viewBox="0 0 40 41" fill="none" xmlns="http://www.w3.org/2000/svg">
    <rect y="0.842773" width="40" height="40" rx="10" fill="#6D8DFE"/>
    <path d="M16.6668 29.1761H23.3335C26.6835 29.1761 27.2835 27.8344 27.4585 26.2011L28.0835 19.5344C28.3085 17.5011 27.7252 15.8428 24.1668 15.8428H15.8335C12.2752 15.8428 11.6918 17.5011 11.9168 19.5344L12.5418 26.2011C12.7168 27.8344 13.3168 29.1761 16.6668 29.1761Z" stroke="#292D32" stroke-width="1.5" stroke-miterlimit="10" stroke-linecap="round" stroke-linejoin="round"/>
    <path d="M16.6667 15.8429V15.1762C16.6667 13.7012 16.6667 12.5095 19.3334 12.5095H20.6667C23.3334 12.5095 23.3334 13.7012 23.3334 15.1762V15.8429" stroke="#292D32" stroke-width="1.5" stroke-miterlimit="10" stroke-linecap="round" stroke-linejoin="round"/>
    <path d="M21.6666 21.6761V22.5094C21.6666 22.5178 21.6666 22.5178 21.6666 22.5261C21.6666 23.4344 21.6583 24.1761 19.9999 24.1761C18.3499 24.1761 18.3333 23.4428 18.3333 22.5344V21.6761C18.3333 20.8428 18.3333 20.8428 19.1666 20.8428H20.8333C21.6666 20.8428 21.6666 20.8428 21.6666 21.6761Z" stroke="#292D32" stroke-width="1.5" stroke-miterlimit="10" stroke-linecap="round" stroke-linejoin="round"/>
    <path d="M28.0417 20.0095C26.1167 21.4095 23.9167 22.2429 21.6667 22.5262" stroke="#292D32" stroke-width="1.5" stroke-miterlimit="10" stroke-linecap="round" stroke-linejoin="round"/>
    <path d="M12.1833 20.2344C14.0583 21.5177 16.175 22.2927 18.3333 22.5344" stroke="#292D32" stroke-width="1.5" stroke-miterlimit="10" stroke-linecap="round" stroke-linejoin="round"/>
</svg>
