<svg width="40" height="40" viewBox="0 0 40 40" fill="none" xmlns="http://www.w3.org/2000/svg">
    <rect width="40" height="40" rx="10" fill="#B5FE6D"/>
    <path d="M21 21.9999C21 22.8833 20.6167 23.6833 20 24.2333C19.4667 24.7166 18.7666 24.9999 18 24.9999C16.3416 24.9999 15 23.6583 15 21.9999C15 20.6166 15.9417 19.4499 17.2084 19.1083C17.55 19.9749 18.2917 20.6499 19.2083 20.8999C19.4583 20.9666 19.725 21.0083 20 21.0083C20.275 21.0083 20.5417 20.9749 20.7917 20.8999C20.925 21.2333 21 21.6083 21 21.9999Z" stroke="#292D32" stroke-width="1.5" stroke-linecap="round" stroke-linejoin="round"/>
    <path d="M23 18C23 18.3917 22.925 18.7667 22.7916 19.1083C22.45 19.975 21.7083 20.65 20.7917 20.9C20.5417 20.9667 20.275 21.0083 20 21.0083C19.725 21.0083 19.4583 20.975 19.2083 20.9C18.2916 20.65 17.55 19.9833 17.2083 19.1083C17.075 18.7667 17 18.3917 17 18C17 16.3417 18.3416 15 20 15C21.6583 15 23 16.3417 23 18Z" stroke="#292D32" stroke-width="1.5" stroke-linecap="round" stroke-linejoin="round"/>
    <path d="M25 22C25 23.6583 23.6584 25 22 25C21.2334 25 20.5333 24.7083 20 24.2333C20.6167 23.6916 21 22.8916 21 22C21 21.6083 20.925 21.2333 20.7917 20.8916C21.7083 20.6416 22.45 19.975 22.7916 19.1C24.0583 19.45 25 20.6166 25 22Z" stroke="#292D32" stroke-width="1.5" stroke-linecap="round" stroke-linejoin="round"/>
    <path d="M17.5003 28.3333H22.5003C26.667 28.3333 28.3337 26.6666 28.3337 22.5V17.5C28.3337 13.3333 26.667 11.6666 22.5003 11.6666H17.5003C13.3337 11.6666 11.667 13.3333 11.667 17.5V22.5C11.667 26.6666 13.3337 28.3333 17.5003 28.3333Z" stroke="#292D32" stroke-width="1.5" stroke-linecap="round" stroke-linejoin="round"/>
</svg>
