<svg width="40" height="40" viewBox="0 0 40 40" fill="none" xmlns="http://www.w3.org/2000/svg">
    <rect width="40" height="40" rx="10" fill="#25D998"/>
    <path d="M17.5001 20.8334C16.9501 21.1084 16.4918 21.5167 16.1501 22.025C15.9584 22.3167 15.9584 22.6834 16.1501 22.975C16.4918 23.4834 16.9501 23.8917 17.5001 24.1667" stroke="#292D32" stroke-width="1.5" stroke-linecap="round" stroke-linejoin="round"/>
    <path d="M22.6748 20.8334C23.2248 21.1084 23.6831 21.5167 24.0248 22.025C24.2165 22.3167 24.2165 22.6834 24.0248 22.975C23.6831 23.4834 23.2248 23.8917 22.6748 24.1667" stroke="#292D32" stroke-width="1.5" stroke-linecap="round" stroke-linejoin="round"/>
    <path d="M17.4998 28.3333H22.4998C26.6665 28.3333 28.3332 26.6666 28.3332 22.5V17.5C28.3332 13.3333 26.6665 11.6666 22.4998 11.6666H17.4998C13.3332 11.6666 11.6665 13.3333 11.6665 17.5V22.5C11.6665 26.6666 13.3332 28.3333 17.4998 28.3333Z" stroke="#292D32" stroke-width="1.5" stroke-linecap="round" stroke-linejoin="round"/>
    <path d="M11.8584 16.675L27.8751 16.6666" stroke="#292D32" stroke-width="1.5" stroke-linecap="round" stroke-linejoin="round"/>
</svg>
