<svg width="40" height="40" viewBox="0 0 40 40" fill="none" xmlns="http://www.w3.org/2000/svg">
    <rect width="40" height="40" rx="10" fill="#8AFC55"/>
    <path d="M20.7668 11.8833L26.1918 14.8083C26.8252 15.15 26.8252 16.125 26.1918 16.4667L20.7668 19.3917C20.2835 19.65 19.7168 19.65 19.2335 19.3917L13.8085 16.4667C13.1752 16.125 13.1752 15.15 13.8085 14.8083L19.2335 11.8833C19.7168 11.625 20.2835 11.625 20.7668 11.8833Z" stroke="#292D32" stroke-width="1.5" stroke-linecap="round" stroke-linejoin="round"/>
    <path d="M13.0082 18.4417L18.0498 20.9667C18.6748 21.2834 19.0748 21.9251 19.0748 22.6251V27.3917C19.0748 28.0834 18.3498 28.5251 17.7332 28.2167L12.6915 25.6917C12.0665 25.3751 11.6665 24.7334 11.6665 24.0334V19.2667C11.6665 18.5751 12.3915 18.1334 13.0082 18.4417Z" stroke="#292D32" stroke-width="1.5" stroke-linecap="round" stroke-linejoin="round"/>
    <path d="M26.9915 18.4417L21.9498 20.9667C21.3248 21.2834 20.9248 21.9251 20.9248 22.6251V27.3917C20.9248 28.0834 21.6498 28.5251 22.2665 28.2167L27.3081 25.6917C27.9331 25.3751 28.3331 24.7334 28.3331 24.0334V19.2667C28.3331 18.5751 27.6081 18.1334 26.9915 18.4417Z" stroke="#292D32" stroke-width="1.5" stroke-linecap="round" stroke-linejoin="round"/>
</svg>