<svg width="40" height="40" viewBox="0 0 40 40" fill="none" xmlns="http://www.w3.org/2000/svg">
    <rect width="40" height="40" rx="10" fill="#25D998"/>
    <path d="M28.3337 22.5V17.5C28.3337 13.3333 26.667 11.6666 22.5003 11.6666H17.5003C13.3337 11.6666 11.667 13.3333 11.667 17.5V22.5C11.667 26.6666 13.3337 28.3333 17.5003 28.3333H22.5003C26.667 28.3333 28.3337 26.6666 28.3337 22.5Z" stroke="#292D32" stroke-width="1.5" stroke-linecap="round" stroke-linejoin="round"/>
    <path d="M24.1663 23.9583H21.583L22.933 22.4666C23.5997 21.7249 23.9663 20.7833 23.9663 19.8167C23.9663 18.8167 23.5497 17.8583 22.808 17.15C22.0663 16.4416 21.058 16.0416 19.9997 16.0416C18.9497 16.0416 17.9413 16.4416 17.1913 17.15C16.4497 17.8583 16.033 18.8167 16.033 19.8167C16.033 20.7917 16.3997 21.7333 17.0663 22.4666L18.4163 23.9583H15.833" stroke="#292D32" stroke-width="1.5" stroke-linecap="round" stroke-linejoin="round"/>
</svg>
