<svg width="20" height="15" viewBox="0 0 20 15" fill="none" xmlns="http://www.w3.org/2000/svg">
    <path d="M19.96 -3.57628e-06L15.7 9.3L15.46 7.32C16.18 7.32 16.82 7.5 17.38 7.86C17.94 8.22 18.4 8.68 18.76 9.24C19.12 9.8 19.3 10.42 19.3 11.1C19.3 11.78 19.12 12.42 18.76 13.02C18.4 13.58 17.94 14.02 17.38 14.34C16.82 14.66 16.16 14.82 15.4 14.82C14.72 14.82 14.08 14.66 13.48 14.34C12.92 13.98 12.46 13.5 12.1 12.9C11.78 12.3 11.62 11.62 11.62 10.86C11.62 10.1 11.76 9.32 12.04 8.52C12.32 7.68 12.86 6.58 13.66 5.22L16.6 -3.57628e-06H19.96ZM9.16 -3.57628e-06L4.9 9.3L4.66 7.32C5.38 7.32 6.02 7.5 6.58 7.86C7.14 8.22 7.6 8.68 7.96 9.24C8.32 9.8 8.5 10.42 8.5 11.1C8.5 11.78 8.32 12.42 7.96 13.02C7.6 13.58 7.14 14.02 6.58 14.34C6.02 14.66 5.36 14.82 4.6 14.82C3.92 14.82 3.28 14.66 2.68 14.34C2.12 13.98 1.66 13.5 1.3 12.9C0.98 12.3 0.82 11.62 0.82 10.86C0.82 10.1 0.96 9.32 1.24 8.52C1.52 7.68 2.06 6.58 2.86 5.22L5.8 -3.57628e-06H9.16Z" fill="#0044FF"/>
</svg>
